<mxfile host="Electron" agent="Mozilla/5.0 (Windows NT 10.0; Win64; x64) AppleWebKit/537.36 (KHTML, like Gecko) draw.io/26.0.4 Chrome/128.0.6613.186 Electron/32.2.5 Safari/537.36" version="26.0.4">
  <diagram name="Page-1" id="C8TJBIB4cI3RyI80sVMX">
    <mxGraphModel dx="989" dy="577" grid="1" gridSize="10" guides="1" tooltips="1" connect="1" arrows="1" fold="1" page="1" pageScale="1" pageWidth="827" pageHeight="1169" math="0" shadow="0">
      <root>
        <mxCell id="0" />
        <mxCell id="1" parent="0" />
        <mxCell id="tVv8EJueiG8kkGohXM46-197" style="edgeStyle=orthogonalEdgeStyle;rounded=0;orthogonalLoop=1;jettySize=auto;html=1;entryX=1;entryY=0.5;entryDx=0;entryDy=0;" edge="1" parent="1" source="tVv8EJueiG8kkGohXM46-195" target="tVv8EJueiG8kkGohXM46-192">
          <mxGeometry relative="1" as="geometry">
            <Array as="points">
              <mxPoint x="800" y="3210" />
              <mxPoint x="800" y="3405" />
            </Array>
          </mxGeometry>
        </mxCell>
        <mxCell id="tVv8EJueiG8kkGohXM46-195" value="" style="rounded=0;whiteSpace=wrap;html=1;fillColor=#fad9d5;strokeColor=#ae4132;" vertex="1" parent="1">
          <mxGeometry x="14" y="3170" width="676" height="80" as="geometry" />
        </mxCell>
        <mxCell id="tVv8EJueiG8kkGohXM46-186" style="edgeStyle=orthogonalEdgeStyle;rounded=0;orthogonalLoop=1;jettySize=auto;html=1;entryX=1;entryY=0.5;entryDx=0;entryDy=0;" edge="1" parent="1" source="tVv8EJueiG8kkGohXM46-184" target="tVv8EJueiG8kkGohXM46-182">
          <mxGeometry relative="1" as="geometry">
            <mxPoint x="810" y="3230" as="targetPoint" />
            <Array as="points">
              <mxPoint x="790" y="3023" />
              <mxPoint x="790" y="3217" />
            </Array>
          </mxGeometry>
        </mxCell>
        <mxCell id="tVv8EJueiG8kkGohXM46-184" value="" style="rounded=0;whiteSpace=wrap;html=1;labelBackgroundColor=none;labelBorderColor=light-dark(#FF4281,#EDEDED);strokeColor=#b85450;fillColor=#f8cecc;" vertex="1" parent="1">
          <mxGeometry x="10" y="2975" width="720" height="95" as="geometry" />
        </mxCell>
        <mxCell id="tVv8EJueiG8kkGohXM46-1" value="Parking Lot" style="text;html=1;align=center;verticalAlign=middle;resizable=0;points=[];autosize=1;strokeColor=none;fillColor=none;fontStyle=1" vertex="1" parent="1">
          <mxGeometry x="40" y="50" width="80" height="30" as="geometry" />
        </mxCell>
        <mxCell id="tVv8EJueiG8kkGohXM46-2" value="Requirement Gathering" style="text;html=1;align=center;verticalAlign=middle;resizable=0;points=[];autosize=1;strokeColor=none;fillColor=none;" vertex="1" parent="1">
          <mxGeometry x="25" y="148" width="150" height="30" as="geometry" />
        </mxCell>
        <mxCell id="tVv8EJueiG8kkGohXM46-3" value="1. Different exit and entry gates" style="text;html=1;align=center;verticalAlign=middle;resizable=0;points=[];autosize=1;strokeColor=none;fillColor=none;" vertex="1" parent="1">
          <mxGeometry x="40" y="200" width="190" height="30" as="geometry" />
        </mxCell>
        <mxCell id="tVv8EJueiG8kkGohXM46-4" value="2. Multi floor/ Levels" style="text;html=1;align=center;verticalAlign=middle;resizable=0;points=[];autosize=1;strokeColor=none;fillColor=none;" vertex="1" parent="1">
          <mxGeometry x="40" y="230" width="130" height="30" as="geometry" />
        </mxCell>
        <mxCell id="tVv8EJueiG8kkGohXM46-5" value="3.Different slots on a floor for diff type of vechile" style="text;html=1;align=center;verticalAlign=middle;resizable=0;points=[];autosize=1;strokeColor=none;fillColor=none;" vertex="1" parent="1">
          <mxGeometry x="40" y="260" width="280" height="30" as="geometry" />
        </mxCell>
        <mxCell id="tVv8EJueiG8kkGohXM46-7" value="4. A ticket is going to be generated at the entry gate" style="text;html=1;align=center;verticalAlign=middle;resizable=0;points=[];autosize=1;strokeColor=none;fillColor=none;" vertex="1" parent="1">
          <mxGeometry x="40" y="290" width="300" height="30" as="geometry" />
        </mxCell>
        <mxCell id="tVv8EJueiG8kkGohXM46-8" value="5. Slot is assigned at the time of ticket generation" style="text;html=1;align=center;verticalAlign=middle;resizable=0;points=[];autosize=1;strokeColor=none;fillColor=none;" vertex="1" parent="1">
          <mxGeometry x="44" y="320" width="280" height="30" as="geometry" />
        </mxCell>
        <mxCell id="tVv8EJueiG8kkGohXM46-9" value="6. Ways of assign slots" style="text;html=1;align=center;verticalAlign=middle;resizable=0;points=[];autosize=1;strokeColor=none;fillColor=none;" vertex="1" parent="1">
          <mxGeometry x="40" y="350" width="150" height="30" as="geometry" />
        </mxCell>
        <mxCell id="tVv8EJueiG8kkGohXM46-11" value="Near" style="text;html=1;align=center;verticalAlign=middle;resizable=0;points=[];autosize=1;strokeColor=none;fillColor=none;" vertex="1" parent="1">
          <mxGeometry x="220" y="350" width="50" height="30" as="geometry" />
        </mxCell>
        <mxCell id="tVv8EJueiG8kkGohXM46-12" value="Far" style="text;html=1;align=center;verticalAlign=middle;resizable=0;points=[];autosize=1;strokeColor=none;fillColor=none;" vertex="1" parent="1">
          <mxGeometry x="284" y="350" width="40" height="30" as="geometry" />
        </mxCell>
        <mxCell id="tVv8EJueiG8kkGohXM46-13" value="Random" style="text;html=1;align=center;verticalAlign=middle;resizable=0;points=[];autosize=1;strokeColor=none;fillColor=none;" vertex="1" parent="1">
          <mxGeometry x="340" y="350" width="70" height="30" as="geometry" />
        </mxCell>
        <mxCell id="tVv8EJueiG8kkGohXM46-15" style="edgeStyle=orthogonalEdgeStyle;rounded=0;orthogonalLoop=1;jettySize=auto;html=1;" edge="1" parent="1" source="tVv8EJueiG8kkGohXM46-14">
          <mxGeometry relative="1" as="geometry">
            <mxPoint x="430" y="365" as="targetPoint" />
          </mxGeometry>
        </mxCell>
        <mxCell id="tVv8EJueiG8kkGohXM46-14" value="Admin portal Configuration" style="text;html=1;align=center;verticalAlign=middle;resizable=0;points=[];autosize=1;strokeColor=none;fillColor=none;fontStyle=1" vertex="1" parent="1">
          <mxGeometry x="500" y="350" width="170" height="30" as="geometry" />
        </mxCell>
        <mxCell id="tVv8EJueiG8kkGohXM46-16" value="7. Exit gate payment will happen" style="text;html=1;align=center;verticalAlign=middle;resizable=0;points=[];autosize=1;strokeColor=none;fillColor=none;" vertex="1" parent="1">
          <mxGeometry x="40" y="380" width="200" height="30" as="geometry" />
        </mxCell>
        <mxCell id="tVv8EJueiG8kkGohXM46-17" value="Payment calculation" style="text;html=1;align=center;verticalAlign=middle;resizable=0;points=[];autosize=1;strokeColor=none;fillColor=none;" vertex="1" parent="1">
          <mxGeometry x="270" y="380" width="130" height="30" as="geometry" />
        </mxCell>
        <mxCell id="tVv8EJueiG8kkGohXM46-18" value="Weekend&amp;nbsp; |&amp;nbsp; Weekday |&amp;nbsp; Festivel&amp;nbsp; &amp;nbsp;FEE" style="text;html=1;align=center;verticalAlign=middle;resizable=0;points=[];autosize=1;strokeColor=none;fillColor=none;" vertex="1" parent="1">
          <mxGeometry x="400" y="380" width="230" height="30" as="geometry" />
        </mxCell>
        <mxCell id="tVv8EJueiG8kkGohXM46-19" value="8. Payment can be done via different modes" style="text;html=1;align=center;verticalAlign=middle;resizable=0;points=[];autosize=1;strokeColor=none;fillColor=none;" vertex="1" parent="1">
          <mxGeometry x="44" y="410" width="260" height="30" as="geometry" />
        </mxCell>
        <mxCell id="tVv8EJueiG8kkGohXM46-20" value="Card | Cash | Online" style="text;html=1;align=center;verticalAlign=middle;resizable=0;points=[];autosize=1;strokeColor=none;fillColor=none;" vertex="1" parent="1">
          <mxGeometry x="300" y="410" width="130" height="30" as="geometry" />
        </mxCell>
        <mxCell id="tVv8EJueiG8kkGohXM46-21" value="Third Party" style="text;html=1;align=center;verticalAlign=middle;resizable=0;points=[];autosize=1;strokeColor=none;fillColor=none;" vertex="1" parent="1">
          <mxGeometry x="420" y="410" width="80" height="30" as="geometry" />
        </mxCell>
        <mxCell id="tVv8EJueiG8kkGohXM46-23" value="transaction ID and Type of payment" style="text;html=1;align=center;verticalAlign=middle;resizable=0;points=[];autosize=1;strokeColor=none;fillColor=none;labelBorderColor=default;" vertex="1" parent="1">
          <mxGeometry x="500" y="410" width="210" height="30" as="geometry" />
        </mxCell>
        <mxCell id="tVv8EJueiG8kkGohXM46-24" value="Class Diagram" style="text;html=1;align=center;verticalAlign=middle;resizable=0;points=[];autosize=1;strokeColor=none;fillColor=none;fontStyle=1" vertex="1" parent="1">
          <mxGeometry x="45" y="700" width="100" height="30" as="geometry" />
        </mxCell>
        <mxCell id="tVv8EJueiG8kkGohXM46-26" value="ParkingLot" style="swimlane;fontStyle=1;align=center;verticalAlign=top;childLayout=stackLayout;horizontal=1;startSize=26;horizontalStack=0;resizeParent=1;resizeParentMax=0;resizeLast=0;collapsible=1;marginBottom=0;whiteSpace=wrap;html=1;" vertex="1" parent="1">
          <mxGeometry x="55" y="780" width="160" height="194" as="geometry" />
        </mxCell>
        <mxCell id="tVv8EJueiG8kkGohXM46-27" value="- id: String&lt;br&gt;&lt;div&gt;- buildingName: String&lt;/div&gt;&lt;div&gt;- floors: Floor[]&lt;/div&gt;&lt;div&gt;- capacity&lt;/div&gt;&lt;div&gt;- entryGates: Gate[]&lt;/div&gt;&lt;div&gt;- exitGates: Gate[]&lt;/div&gt;&lt;div&gt;- allowedVechileType: VechileType[]&lt;/div&gt;&lt;div&gt;- address: String&lt;/div&gt;" style="text;strokeColor=none;fillColor=none;align=left;verticalAlign=top;spacingLeft=4;spacingRight=4;overflow=hidden;rotatable=0;points=[[0,0.5],[1,0.5]];portConstraint=eastwest;whiteSpace=wrap;html=1;" vertex="1" parent="tVv8EJueiG8kkGohXM46-26">
          <mxGeometry y="26" width="160" height="134" as="geometry" />
        </mxCell>
        <mxCell id="tVv8EJueiG8kkGohXM46-28" value="" style="line;strokeWidth=1;fillColor=none;align=left;verticalAlign=middle;spacingTop=-1;spacingLeft=3;spacingRight=3;rotatable=0;labelPosition=right;points=[];portConstraint=eastwest;strokeColor=inherit;" vertex="1" parent="tVv8EJueiG8kkGohXM46-26">
          <mxGeometry y="160" width="160" height="8" as="geometry" />
        </mxCell>
        <mxCell id="tVv8EJueiG8kkGohXM46-29" value="+ method(type): type" style="text;strokeColor=none;fillColor=none;align=left;verticalAlign=top;spacingLeft=4;spacingRight=4;overflow=hidden;rotatable=0;points=[[0,0.5],[1,0.5]];portConstraint=eastwest;whiteSpace=wrap;html=1;" vertex="1" parent="tVv8EJueiG8kkGohXM46-26">
          <mxGeometry y="168" width="160" height="26" as="geometry" />
        </mxCell>
        <mxCell id="tVv8EJueiG8kkGohXM46-32" value="Gate" style="swimlane;fontStyle=1;align=center;verticalAlign=top;childLayout=stackLayout;horizontal=1;startSize=26;horizontalStack=0;resizeParent=1;resizeParentMax=0;resizeLast=0;collapsible=1;marginBottom=0;whiteSpace=wrap;html=1;" vertex="1" parent="1">
          <mxGeometry x="470" y="750" width="160" height="184" as="geometry" />
        </mxCell>
        <mxCell id="tVv8EJueiG8kkGohXM46-33" value="- id: String&lt;div&gt;- gateName: String&lt;/div&gt;&lt;div&gt;- gateType: GateType&lt;/div&gt;&lt;div&gt;- payment: Payment&lt;/div&gt;&lt;div&gt;- gateState: GateState&lt;/div&gt;&lt;div&gt;-&amp;nbsp;&lt;span style=&quot;background-color: transparent; color: light-dark(rgb(0, 0, 0), rgb(255, 255, 255));&quot;&gt;allowedVechileType: HashMap&amp;lt;VechileType,Integer&amp;gt;&lt;/span&gt;&lt;/div&gt;&lt;div&gt;&lt;span style=&quot;background-color: transparent; color: light-dark(rgb(0, 0, 0), rgb(255, 255, 255));&quot;&gt;- operator: Operator&lt;/span&gt;&lt;/div&gt;" style="text;strokeColor=none;fillColor=none;align=left;verticalAlign=top;spacingLeft=4;spacingRight=4;overflow=hidden;rotatable=0;points=[[0,0.5],[1,0.5]];portConstraint=eastwest;whiteSpace=wrap;html=1;" vertex="1" parent="tVv8EJueiG8kkGohXM46-32">
          <mxGeometry y="26" width="160" height="124" as="geometry" />
        </mxCell>
        <mxCell id="tVv8EJueiG8kkGohXM46-34" value="" style="line;strokeWidth=1;fillColor=none;align=left;verticalAlign=middle;spacingTop=-1;spacingLeft=3;spacingRight=3;rotatable=0;labelPosition=right;points=[];portConstraint=eastwest;strokeColor=inherit;" vertex="1" parent="tVv8EJueiG8kkGohXM46-32">
          <mxGeometry y="150" width="160" height="8" as="geometry" />
        </mxCell>
        <mxCell id="tVv8EJueiG8kkGohXM46-35" value="+ method(type): type" style="text;strokeColor=none;fillColor=none;align=left;verticalAlign=top;spacingLeft=4;spacingRight=4;overflow=hidden;rotatable=0;points=[[0,0.5],[1,0.5]];portConstraint=eastwest;whiteSpace=wrap;html=1;" vertex="1" parent="tVv8EJueiG8kkGohXM46-32">
          <mxGeometry y="158" width="160" height="26" as="geometry" />
        </mxCell>
        <mxCell id="tVv8EJueiG8kkGohXM46-36" value="&lt;b&gt;GateType&lt;/b&gt;" style="swimlane;fontStyle=0;childLayout=stackLayout;horizontal=1;startSize=26;fillColor=none;horizontalStack=0;resizeParent=1;resizeParentMax=0;resizeLast=0;collapsible=1;marginBottom=0;whiteSpace=wrap;html=1;" vertex="1" parent="1">
          <mxGeometry x="225" y="1840" width="140" height="78" as="geometry" />
        </mxCell>
        <mxCell id="tVv8EJueiG8kkGohXM46-37" value="ENTRY" style="text;strokeColor=none;fillColor=none;align=left;verticalAlign=top;spacingLeft=4;spacingRight=4;overflow=hidden;rotatable=0;points=[[0,0.5],[1,0.5]];portConstraint=eastwest;whiteSpace=wrap;html=1;" vertex="1" parent="tVv8EJueiG8kkGohXM46-36">
          <mxGeometry y="26" width="140" height="26" as="geometry" />
        </mxCell>
        <mxCell id="tVv8EJueiG8kkGohXM46-38" value="EXIT" style="text;strokeColor=none;fillColor=none;align=left;verticalAlign=top;spacingLeft=4;spacingRight=4;overflow=hidden;rotatable=0;points=[[0,0.5],[1,0.5]];portConstraint=eastwest;whiteSpace=wrap;html=1;" vertex="1" parent="tVv8EJueiG8kkGohXM46-36">
          <mxGeometry y="52" width="140" height="26" as="geometry" />
        </mxCell>
        <mxCell id="tVv8EJueiG8kkGohXM46-40" value="Floor" style="swimlane;fontStyle=1;align=center;verticalAlign=top;childLayout=stackLayout;horizontal=1;startSize=26;horizontalStack=0;resizeParent=1;resizeParentMax=0;resizeLast=0;collapsible=1;marginBottom=0;whiteSpace=wrap;html=1;" vertex="1" parent="1">
          <mxGeometry x="44" y="1075.01" width="180" height="154" as="geometry" />
        </mxCell>
        <mxCell id="tVv8EJueiG8kkGohXM46-41" value="- id: String&lt;div&gt;- floorName: String&lt;/div&gt;&lt;div&gt;- slot: Slot[]&lt;/div&gt;&lt;div&gt;&lt;div&gt;- allowedVechileType: HashMap&amp;lt;VechileType,Integer&amp;gt;&lt;/div&gt;&lt;/div&gt;&lt;div&gt;- state: FloorState&lt;/div&gt;" style="text;strokeColor=none;fillColor=none;align=left;verticalAlign=top;spacingLeft=4;spacingRight=4;overflow=hidden;rotatable=0;points=[[0,0.5],[1,0.5]];portConstraint=eastwest;whiteSpace=wrap;html=1;" vertex="1" parent="tVv8EJueiG8kkGohXM46-40">
          <mxGeometry y="26" width="180" height="94" as="geometry" />
        </mxCell>
        <mxCell id="tVv8EJueiG8kkGohXM46-42" value="" style="line;strokeWidth=1;fillColor=none;align=left;verticalAlign=middle;spacingTop=-1;spacingLeft=3;spacingRight=3;rotatable=0;labelPosition=right;points=[];portConstraint=eastwest;strokeColor=inherit;" vertex="1" parent="tVv8EJueiG8kkGohXM46-40">
          <mxGeometry y="120" width="180" height="8" as="geometry" />
        </mxCell>
        <mxCell id="tVv8EJueiG8kkGohXM46-43" value="+ method(type): type" style="text;strokeColor=none;fillColor=none;align=left;verticalAlign=top;spacingLeft=4;spacingRight=4;overflow=hidden;rotatable=0;points=[[0,0.5],[1,0.5]];portConstraint=eastwest;whiteSpace=wrap;html=1;" vertex="1" parent="tVv8EJueiG8kkGohXM46-40">
          <mxGeometry y="128" width="180" height="26" as="geometry" />
        </mxCell>
        <mxCell id="tVv8EJueiG8kkGohXM46-44" value="" style="endArrow=diamondThin;endFill=1;endSize=24;html=1;rounded=0;exitX=0.413;exitY=0.009;exitDx=0;exitDy=0;entryX=0.45;entryY=0.885;entryDx=0;entryDy=0;entryPerimeter=0;exitPerimeter=0;" edge="1" parent="1" source="tVv8EJueiG8kkGohXM46-47" target="tVv8EJueiG8kkGohXM46-43">
          <mxGeometry width="160" relative="1" as="geometry">
            <mxPoint x="95.7" y="1352.01" as="sourcePoint" />
            <mxPoint x="130" y="1215.01" as="targetPoint" />
          </mxGeometry>
        </mxCell>
        <mxCell id="tVv8EJueiG8kkGohXM46-45" value="" style="endArrow=diamondThin;endFill=1;endSize=24;html=1;rounded=0;entryX=0.475;entryY=0.885;entryDx=0;entryDy=0;entryPerimeter=0;exitX=0.5;exitY=0;exitDx=0;exitDy=0;" edge="1" parent="1" source="tVv8EJueiG8kkGohXM46-40" target="tVv8EJueiG8kkGohXM46-29">
          <mxGeometry width="160" relative="1" as="geometry">
            <mxPoint x="340" y="1095.01" as="sourcePoint" />
            <mxPoint x="131.96000000000004" y="1054.998" as="targetPoint" />
          </mxGeometry>
        </mxCell>
        <mxCell id="tVv8EJueiG8kkGohXM46-46" value="" style="endArrow=diamondThin;endFill=1;endSize=24;html=1;rounded=0;entryX=1.013;entryY=0.369;entryDx=0;entryDy=0;entryPerimeter=0;exitX=-0.025;exitY=0.63;exitDx=0;exitDy=0;exitPerimeter=0;" edge="1" parent="1" source="tVv8EJueiG8kkGohXM46-33" target="tVv8EJueiG8kkGohXM46-27">
          <mxGeometry width="160" relative="1" as="geometry">
            <mxPoint x="350" y="1015" as="sourcePoint" />
            <mxPoint x="510" y="1015" as="targetPoint" />
          </mxGeometry>
        </mxCell>
        <mxCell id="tVv8EJueiG8kkGohXM46-47" value="Slot" style="swimlane;fontStyle=1;align=center;verticalAlign=top;childLayout=stackLayout;horizontal=1;startSize=26;horizontalStack=0;resizeParent=1;resizeParentMax=0;resizeLast=0;collapsible=1;marginBottom=0;whiteSpace=wrap;html=1;" vertex="1" parent="1">
          <mxGeometry x="60" y="1263" width="160" height="134" as="geometry" />
        </mxCell>
        <mxCell id="tVv8EJueiG8kkGohXM46-48" value="- id: String&lt;div&gt;- slotName: String&lt;/div&gt;&lt;div&gt;- vechileType: VechileType&lt;/div&gt;&lt;div&gt;- vechile: Vechile&lt;/div&gt;&lt;div&gt;- status: SlotStatus&lt;/div&gt;" style="text;strokeColor=none;fillColor=none;align=left;verticalAlign=top;spacingLeft=4;spacingRight=4;overflow=hidden;rotatable=0;points=[[0,0.5],[1,0.5]];portConstraint=eastwest;whiteSpace=wrap;html=1;" vertex="1" parent="tVv8EJueiG8kkGohXM46-47">
          <mxGeometry y="26" width="160" height="74" as="geometry" />
        </mxCell>
        <mxCell id="tVv8EJueiG8kkGohXM46-49" value="" style="line;strokeWidth=1;fillColor=none;align=left;verticalAlign=middle;spacingTop=-1;spacingLeft=3;spacingRight=3;rotatable=0;labelPosition=right;points=[];portConstraint=eastwest;strokeColor=inherit;" vertex="1" parent="tVv8EJueiG8kkGohXM46-47">
          <mxGeometry y="100" width="160" height="8" as="geometry" />
        </mxCell>
        <mxCell id="tVv8EJueiG8kkGohXM46-50" value="+ method(type): type" style="text;strokeColor=none;fillColor=none;align=left;verticalAlign=top;spacingLeft=4;spacingRight=4;overflow=hidden;rotatable=0;points=[[0,0.5],[1,0.5]];portConstraint=eastwest;whiteSpace=wrap;html=1;" vertex="1" parent="tVv8EJueiG8kkGohXM46-47">
          <mxGeometry y="108" width="160" height="26" as="geometry" />
        </mxCell>
        <mxCell id="tVv8EJueiG8kkGohXM46-52" value="Ticket" style="swimlane;fontStyle=1;align=center;verticalAlign=top;childLayout=stackLayout;horizontal=1;startSize=26;horizontalStack=0;resizeParent=1;resizeParentMax=0;resizeLast=0;collapsible=1;marginBottom=0;whiteSpace=wrap;html=1;" vertex="1" parent="1">
          <mxGeometry x="295" y="1063" width="160" height="200" as="geometry" />
        </mxCell>
        <mxCell id="tVv8EJueiG8kkGohXM46-53" value="- id: String&lt;div&gt;- entryTime: Date&lt;/div&gt;&lt;div&gt;&lt;span style=&quot;background-color: transparent; color: light-dark(rgb(0, 0, 0), rgb(255, 255, 255));&quot;&gt;- status: TicketStatus&lt;/span&gt;&lt;/div&gt;&lt;div&gt;- vechile: Vechile&lt;/div&gt;&lt;div&gt;&lt;span style=&quot;background-color: transparent; color: light-dark(rgb(0, 0, 0), rgb(255, 255, 255));&quot;&gt;- slot: Slot&lt;/span&gt;&lt;/div&gt;&lt;div&gt;&lt;span style=&quot;background-color: transparent; color: light-dark(rgb(0, 0, 0), rgb(255, 255, 255));&quot;&gt;- operator: Operator&lt;/span&gt;&lt;br&gt;&lt;/div&gt;&lt;div&gt;&lt;span style=&quot;background-color: transparent; color: light-dark(rgb(0, 0, 0), rgb(255, 255, 255));&quot;&gt;- entryGate: Gate&lt;/span&gt;&lt;/div&gt;" style="text;strokeColor=none;fillColor=none;align=left;verticalAlign=top;spacingLeft=4;spacingRight=4;overflow=hidden;rotatable=0;points=[[0,0.5],[1,0.5]];portConstraint=eastwest;whiteSpace=wrap;html=1;" vertex="1" parent="tVv8EJueiG8kkGohXM46-52">
          <mxGeometry y="26" width="160" height="114" as="geometry" />
        </mxCell>
        <mxCell id="tVv8EJueiG8kkGohXM46-54" value="" style="line;strokeWidth=1;fillColor=none;align=left;verticalAlign=middle;spacingTop=-1;spacingLeft=3;spacingRight=3;rotatable=0;labelPosition=right;points=[];portConstraint=eastwest;strokeColor=inherit;" vertex="1" parent="tVv8EJueiG8kkGohXM46-52">
          <mxGeometry y="140" width="160" height="8" as="geometry" />
        </mxCell>
        <mxCell id="tVv8EJueiG8kkGohXM46-55" value="+ genrateTicket(carNo: String, entryTime: Date): type" style="text;strokeColor=none;fillColor=none;align=left;verticalAlign=top;spacingLeft=4;spacingRight=4;overflow=hidden;rotatable=0;points=[[0,0.5],[1,0.5]];portConstraint=eastwest;whiteSpace=wrap;html=1;" vertex="1" parent="tVv8EJueiG8kkGohXM46-52">
          <mxGeometry y="148" width="160" height="52" as="geometry" />
        </mxCell>
        <mxCell id="tVv8EJueiG8kkGohXM46-60" value="&lt;b&gt;SlotType&lt;/b&gt;" style="swimlane;fontStyle=0;childLayout=stackLayout;horizontal=1;startSize=26;fillColor=none;horizontalStack=0;resizeParent=1;resizeParentMax=0;resizeLast=0;collapsible=1;marginBottom=0;whiteSpace=wrap;html=1;" vertex="1" parent="1">
          <mxGeometry x="70" y="1425.01" width="140" height="104" as="geometry" />
        </mxCell>
        <mxCell id="tVv8EJueiG8kkGohXM46-61" value="NEAR" style="text;strokeColor=none;fillColor=none;align=left;verticalAlign=top;spacingLeft=4;spacingRight=4;overflow=hidden;rotatable=0;points=[[0,0.5],[1,0.5]];portConstraint=eastwest;whiteSpace=wrap;html=1;" vertex="1" parent="tVv8EJueiG8kkGohXM46-60">
          <mxGeometry y="26" width="140" height="26" as="geometry" />
        </mxCell>
        <mxCell id="tVv8EJueiG8kkGohXM46-62" value="FAR" style="text;strokeColor=none;fillColor=none;align=left;verticalAlign=top;spacingLeft=4;spacingRight=4;overflow=hidden;rotatable=0;points=[[0,0.5],[1,0.5]];portConstraint=eastwest;whiteSpace=wrap;html=1;" vertex="1" parent="tVv8EJueiG8kkGohXM46-60">
          <mxGeometry y="52" width="140" height="26" as="geometry" />
        </mxCell>
        <mxCell id="tVv8EJueiG8kkGohXM46-63" value="RANDOM" style="text;strokeColor=none;fillColor=none;align=left;verticalAlign=top;spacingLeft=4;spacingRight=4;overflow=hidden;rotatable=0;points=[[0,0.5],[1,0.5]];portConstraint=eastwest;whiteSpace=wrap;html=1;" vertex="1" parent="tVv8EJueiG8kkGohXM46-60">
          <mxGeometry y="78" width="140" height="26" as="geometry" />
        </mxCell>
        <mxCell id="tVv8EJueiG8kkGohXM46-64" value="Payment" style="swimlane;fontStyle=1;align=center;verticalAlign=top;childLayout=stackLayout;horizontal=1;startSize=26;horizontalStack=0;resizeParent=1;resizeParentMax=0;resizeLast=0;collapsible=1;marginBottom=0;whiteSpace=wrap;html=1;" vertex="1" parent="1">
          <mxGeometry x="545" y="1380" width="200" height="164" as="geometry" />
        </mxCell>
        <mxCell id="tVv8EJueiG8kkGohXM46-65" value="- id: String&lt;div&gt;- time: Date&lt;/div&gt;&lt;div&gt;- mode: PaymentMode&lt;/div&gt;&lt;div&gt;- status: PaymentStatus&lt;br&gt;&lt;div&gt;&lt;span style=&quot;background-color: transparent; color: light-dark(rgb(0, 0, 0), rgb(255, 255, 255));&quot;&gt;- fee: double&lt;/span&gt;&lt;br&gt;&lt;/div&gt;&lt;div&gt;- transactionId:String&lt;/div&gt;&lt;div&gt;- paymentCalculationStrategies: P&lt;span style=&quot;background-color: transparent; color: light-dark(rgb(0, 0, 0), rgb(255, 255, 255));&quot;&gt;aymentCalculationStrategies&lt;/span&gt;&lt;/div&gt;&lt;/div&gt;" style="text;strokeColor=none;fillColor=none;align=left;verticalAlign=top;spacingLeft=4;spacingRight=4;overflow=hidden;rotatable=0;points=[[0,0.5],[1,0.5]];portConstraint=eastwest;whiteSpace=wrap;html=1;" vertex="1" parent="tVv8EJueiG8kkGohXM46-64">
          <mxGeometry y="26" width="200" height="104" as="geometry" />
        </mxCell>
        <mxCell id="tVv8EJueiG8kkGohXM46-66" value="" style="line;strokeWidth=1;fillColor=none;align=left;verticalAlign=middle;spacingTop=-1;spacingLeft=3;spacingRight=3;rotatable=0;labelPosition=right;points=[];portConstraint=eastwest;strokeColor=inherit;" vertex="1" parent="tVv8EJueiG8kkGohXM46-64">
          <mxGeometry y="130" width="200" height="8" as="geometry" />
        </mxCell>
        <mxCell id="tVv8EJueiG8kkGohXM46-67" value="+ method(type): type" style="text;strokeColor=none;fillColor=none;align=left;verticalAlign=top;spacingLeft=4;spacingRight=4;overflow=hidden;rotatable=0;points=[[0,0.5],[1,0.5]];portConstraint=eastwest;whiteSpace=wrap;html=1;" vertex="1" parent="tVv8EJueiG8kkGohXM46-64">
          <mxGeometry y="138" width="200" height="26" as="geometry" />
        </mxCell>
        <mxCell id="tVv8EJueiG8kkGohXM46-68" value="&lt;b&gt;GateState&lt;/b&gt;" style="swimlane;fontStyle=0;childLayout=stackLayout;horizontal=1;startSize=26;fillColor=none;horizontalStack=0;resizeParent=1;resizeParentMax=0;resizeLast=0;collapsible=1;marginBottom=0;whiteSpace=wrap;html=1;" vertex="1" parent="1">
          <mxGeometry x="405" y="1840" width="140" height="78" as="geometry" />
        </mxCell>
        <mxCell id="tVv8EJueiG8kkGohXM46-69" value="OPEN" style="text;strokeColor=none;fillColor=none;align=left;verticalAlign=top;spacingLeft=4;spacingRight=4;overflow=hidden;rotatable=0;points=[[0,0.5],[1,0.5]];portConstraint=eastwest;whiteSpace=wrap;html=1;" vertex="1" parent="tVv8EJueiG8kkGohXM46-68">
          <mxGeometry y="26" width="140" height="26" as="geometry" />
        </mxCell>
        <mxCell id="tVv8EJueiG8kkGohXM46-70" value="CLOSED" style="text;strokeColor=none;fillColor=none;align=left;verticalAlign=top;spacingLeft=4;spacingRight=4;overflow=hidden;rotatable=0;points=[[0,0.5],[1,0.5]];portConstraint=eastwest;whiteSpace=wrap;html=1;" vertex="1" parent="tVv8EJueiG8kkGohXM46-68">
          <mxGeometry y="52" width="140" height="26" as="geometry" />
        </mxCell>
        <mxCell id="tVv8EJueiG8kkGohXM46-72" value="Vechicle" style="swimlane;fontStyle=1;align=center;verticalAlign=top;childLayout=stackLayout;horizontal=1;startSize=26;horizontalStack=0;resizeParent=1;resizeParentMax=0;resizeLast=0;collapsible=1;marginBottom=0;whiteSpace=wrap;html=1;" vertex="1" parent="1">
          <mxGeometry x="580" y="1041" width="160" height="114" as="geometry" />
        </mxCell>
        <mxCell id="tVv8EJueiG8kkGohXM46-73" value="- vechileNumber: String&lt;div&gt;- ownerName: String&lt;/div&gt;&lt;div&gt;- vechileType: VechileType&lt;/div&gt;" style="text;strokeColor=none;fillColor=none;align=left;verticalAlign=top;spacingLeft=4;spacingRight=4;overflow=hidden;rotatable=0;points=[[0,0.5],[1,0.5]];portConstraint=eastwest;whiteSpace=wrap;html=1;" vertex="1" parent="tVv8EJueiG8kkGohXM46-72">
          <mxGeometry y="26" width="160" height="54" as="geometry" />
        </mxCell>
        <mxCell id="tVv8EJueiG8kkGohXM46-74" value="" style="line;strokeWidth=1;fillColor=none;align=left;verticalAlign=middle;spacingTop=-1;spacingLeft=3;spacingRight=3;rotatable=0;labelPosition=right;points=[];portConstraint=eastwest;strokeColor=inherit;" vertex="1" parent="tVv8EJueiG8kkGohXM46-72">
          <mxGeometry y="80" width="160" height="8" as="geometry" />
        </mxCell>
        <mxCell id="tVv8EJueiG8kkGohXM46-75" value="+ method(type): type" style="text;strokeColor=none;fillColor=none;align=left;verticalAlign=top;spacingLeft=4;spacingRight=4;overflow=hidden;rotatable=0;points=[[0,0.5],[1,0.5]];portConstraint=eastwest;whiteSpace=wrap;html=1;" vertex="1" parent="tVv8EJueiG8kkGohXM46-72">
          <mxGeometry y="88" width="160" height="26" as="geometry" />
        </mxCell>
        <mxCell id="tVv8EJueiG8kkGohXM46-76" value="Operators" style="swimlane;fontStyle=1;align=center;verticalAlign=top;childLayout=stackLayout;horizontal=1;startSize=26;horizontalStack=0;resizeParent=1;resizeParentMax=0;resizeLast=0;collapsible=1;marginBottom=0;whiteSpace=wrap;html=1;" vertex="1" parent="1">
          <mxGeometry x="570" y="1187" width="160" height="104" as="geometry" />
        </mxCell>
        <mxCell id="tVv8EJueiG8kkGohXM46-77" value="- id: String&lt;div&gt;- name: String&lt;/div&gt;&lt;div&gt;- empId: String&lt;/div&gt;" style="text;strokeColor=none;fillColor=none;align=left;verticalAlign=top;spacingLeft=4;spacingRight=4;overflow=hidden;rotatable=0;points=[[0,0.5],[1,0.5]];portConstraint=eastwest;whiteSpace=wrap;html=1;" vertex="1" parent="tVv8EJueiG8kkGohXM46-76">
          <mxGeometry y="26" width="160" height="44" as="geometry" />
        </mxCell>
        <mxCell id="tVv8EJueiG8kkGohXM46-78" value="" style="line;strokeWidth=1;fillColor=none;align=left;verticalAlign=middle;spacingTop=-1;spacingLeft=3;spacingRight=3;rotatable=0;labelPosition=right;points=[];portConstraint=eastwest;strokeColor=inherit;" vertex="1" parent="tVv8EJueiG8kkGohXM46-76">
          <mxGeometry y="70" width="160" height="8" as="geometry" />
        </mxCell>
        <mxCell id="tVv8EJueiG8kkGohXM46-79" value="+ method(type): type" style="text;strokeColor=none;fillColor=none;align=left;verticalAlign=top;spacingLeft=4;spacingRight=4;overflow=hidden;rotatable=0;points=[[0,0.5],[1,0.5]];portConstraint=eastwest;whiteSpace=wrap;html=1;" vertex="1" parent="tVv8EJueiG8kkGohXM46-76">
          <mxGeometry y="78" width="160" height="26" as="geometry" />
        </mxCell>
        <mxCell id="tVv8EJueiG8kkGohXM46-80" value="&lt;b&gt;VechileType&lt;/b&gt;" style="swimlane;fontStyle=0;childLayout=stackLayout;horizontal=1;startSize=26;fillColor=none;horizontalStack=0;resizeParent=1;resizeParentMax=0;resizeLast=0;collapsible=1;marginBottom=0;whiteSpace=wrap;html=1;" vertex="1" parent="1">
          <mxGeometry x="60" y="1650" width="140" height="130" as="geometry" />
        </mxCell>
        <mxCell id="tVv8EJueiG8kkGohXM46-81" value="TWO_WHELLER" style="text;strokeColor=none;fillColor=none;align=left;verticalAlign=top;spacingLeft=4;spacingRight=4;overflow=hidden;rotatable=0;points=[[0,0.5],[1,0.5]];portConstraint=eastwest;whiteSpace=wrap;html=1;" vertex="1" parent="tVv8EJueiG8kkGohXM46-80">
          <mxGeometry y="26" width="140" height="26" as="geometry" />
        </mxCell>
        <mxCell id="tVv8EJueiG8kkGohXM46-82" value="FOUR_WHELLER" style="text;strokeColor=none;fillColor=none;align=left;verticalAlign=top;spacingLeft=4;spacingRight=4;overflow=hidden;rotatable=0;points=[[0,0.5],[1,0.5]];portConstraint=eastwest;whiteSpace=wrap;html=1;" vertex="1" parent="tVv8EJueiG8kkGohXM46-80">
          <mxGeometry y="52" width="140" height="26" as="geometry" />
        </mxCell>
        <mxCell id="tVv8EJueiG8kkGohXM46-83" value="LMV" style="text;strokeColor=none;fillColor=none;align=left;verticalAlign=top;spacingLeft=4;spacingRight=4;overflow=hidden;rotatable=0;points=[[0,0.5],[1,0.5]];portConstraint=eastwest;whiteSpace=wrap;html=1;" vertex="1" parent="tVv8EJueiG8kkGohXM46-80">
          <mxGeometry y="78" width="140" height="26" as="geometry" />
        </mxCell>
        <mxCell id="tVv8EJueiG8kkGohXM46-85" value="HMV" style="text;strokeColor=none;fillColor=none;align=left;verticalAlign=top;spacingLeft=4;spacingRight=4;overflow=hidden;rotatable=0;points=[[0,0.5],[1,0.5]];portConstraint=eastwest;whiteSpace=wrap;html=1;" vertex="1" parent="tVv8EJueiG8kkGohXM46-80">
          <mxGeometry y="104" width="140" height="26" as="geometry" />
        </mxCell>
        <mxCell id="tVv8EJueiG8kkGohXM46-87" value="&lt;b&gt;FloorState&lt;/b&gt;" style="swimlane;fontStyle=0;childLayout=stackLayout;horizontal=1;startSize=26;fillColor=none;horizontalStack=0;resizeParent=1;resizeParentMax=0;resizeLast=0;collapsible=1;marginBottom=0;whiteSpace=wrap;html=1;" vertex="1" parent="1">
          <mxGeometry x="585" y="1840" width="140" height="78" as="geometry" />
        </mxCell>
        <mxCell id="tVv8EJueiG8kkGohXM46-88" value="OPEN" style="text;strokeColor=none;fillColor=none;align=left;verticalAlign=top;spacingLeft=4;spacingRight=4;overflow=hidden;rotatable=0;points=[[0,0.5],[1,0.5]];portConstraint=eastwest;whiteSpace=wrap;html=1;" vertex="1" parent="tVv8EJueiG8kkGohXM46-87">
          <mxGeometry y="26" width="140" height="26" as="geometry" />
        </mxCell>
        <mxCell id="tVv8EJueiG8kkGohXM46-89" value="CLOSED" style="text;strokeColor=none;fillColor=none;align=left;verticalAlign=top;spacingLeft=4;spacingRight=4;overflow=hidden;rotatable=0;points=[[0,0.5],[1,0.5]];portConstraint=eastwest;whiteSpace=wrap;html=1;" vertex="1" parent="tVv8EJueiG8kkGohXM46-87">
          <mxGeometry y="52" width="140" height="26" as="geometry" />
        </mxCell>
        <mxCell id="tVv8EJueiG8kkGohXM46-90" value="&lt;b&gt;SlotStatus&lt;/b&gt;" style="swimlane;fontStyle=0;childLayout=stackLayout;horizontal=1;startSize=26;fillColor=none;horizontalStack=0;resizeParent=1;resizeParentMax=0;resizeLast=0;collapsible=1;marginBottom=0;whiteSpace=wrap;html=1;" vertex="1" parent="1">
          <mxGeometry x="50" y="1840" width="140" height="78" as="geometry" />
        </mxCell>
        <mxCell id="tVv8EJueiG8kkGohXM46-91" value="OCCIPIED" style="text;strokeColor=none;fillColor=none;align=left;verticalAlign=top;spacingLeft=4;spacingRight=4;overflow=hidden;rotatable=0;points=[[0,0.5],[1,0.5]];portConstraint=eastwest;whiteSpace=wrap;html=1;" vertex="1" parent="tVv8EJueiG8kkGohXM46-90">
          <mxGeometry y="26" width="140" height="26" as="geometry" />
        </mxCell>
        <mxCell id="tVv8EJueiG8kkGohXM46-92" value="AVAILABLE" style="text;strokeColor=none;fillColor=none;align=left;verticalAlign=top;spacingLeft=4;spacingRight=4;overflow=hidden;rotatable=0;points=[[0,0.5],[1,0.5]];portConstraint=eastwest;whiteSpace=wrap;html=1;" vertex="1" parent="tVv8EJueiG8kkGohXM46-90">
          <mxGeometry y="52" width="140" height="26" as="geometry" />
        </mxCell>
        <mxCell id="tVv8EJueiG8kkGohXM46-93" value="User Journey" style="text;html=1;align=center;verticalAlign=middle;resizable=0;points=[];autosize=1;strokeColor=none;fillColor=none;fontStyle=1" vertex="1" parent="1">
          <mxGeometry x="45" y="530" width="90" height="30" as="geometry" />
        </mxCell>
        <mxCell id="tVv8EJueiG8kkGohXM46-102" style="edgeStyle=orthogonalEdgeStyle;rounded=0;orthogonalLoop=1;jettySize=auto;html=1;" edge="1" parent="1" source="tVv8EJueiG8kkGohXM46-94" target="tVv8EJueiG8kkGohXM46-95">
          <mxGeometry relative="1" as="geometry" />
        </mxCell>
        <mxCell id="tVv8EJueiG8kkGohXM46-94" value="Vechile" style="text;html=1;align=center;verticalAlign=middle;resizable=0;points=[];autosize=1;strokeColor=none;fillColor=none;" vertex="1" parent="1">
          <mxGeometry x="60" y="585" width="60" height="30" as="geometry" />
        </mxCell>
        <mxCell id="tVv8EJueiG8kkGohXM46-104" style="edgeStyle=orthogonalEdgeStyle;rounded=0;orthogonalLoop=1;jettySize=auto;html=1;" edge="1" parent="1" source="tVv8EJueiG8kkGohXM46-95" target="tVv8EJueiG8kkGohXM46-96">
          <mxGeometry relative="1" as="geometry" />
        </mxCell>
        <mxCell id="tVv8EJueiG8kkGohXM46-95" value="Gate" style="text;html=1;align=center;verticalAlign=middle;resizable=0;points=[];autosize=1;strokeColor=none;fillColor=none;" vertex="1" parent="1">
          <mxGeometry x="140" y="585" width="50" height="30" as="geometry" />
        </mxCell>
        <mxCell id="tVv8EJueiG8kkGohXM46-105" style="edgeStyle=orthogonalEdgeStyle;rounded=0;orthogonalLoop=1;jettySize=auto;html=1;" edge="1" parent="1" source="tVv8EJueiG8kkGohXM46-96" target="tVv8EJueiG8kkGohXM46-106">
          <mxGeometry relative="1" as="geometry">
            <mxPoint x="314" y="600" as="targetPoint" />
          </mxGeometry>
        </mxCell>
        <mxCell id="tVv8EJueiG8kkGohXM46-96" value="Operator" style="text;html=1;align=center;verticalAlign=middle;resizable=0;points=[];autosize=1;strokeColor=none;fillColor=none;" vertex="1" parent="1">
          <mxGeometry x="215" y="585" width="70" height="30" as="geometry" />
        </mxCell>
        <mxCell id="tVv8EJueiG8kkGohXM46-109" style="edgeStyle=orthogonalEdgeStyle;rounded=0;orthogonalLoop=1;jettySize=auto;html=1;" edge="1" parent="1" source="tVv8EJueiG8kkGohXM46-98" target="tVv8EJueiG8kkGohXM46-99">
          <mxGeometry relative="1" as="geometry" />
        </mxCell>
        <mxCell id="tVv8EJueiG8kkGohXM46-98" value="Exit Gate" style="text;html=1;align=center;verticalAlign=middle;resizable=0;points=[];autosize=1;strokeColor=none;fillColor=none;" vertex="1" parent="1">
          <mxGeometry x="400" y="585" width="70" height="30" as="geometry" />
        </mxCell>
        <mxCell id="tVv8EJueiG8kkGohXM46-110" style="edgeStyle=orthogonalEdgeStyle;rounded=0;orthogonalLoop=1;jettySize=auto;html=1;" edge="1" parent="1" source="tVv8EJueiG8kkGohXM46-99" target="tVv8EJueiG8kkGohXM46-100">
          <mxGeometry relative="1" as="geometry" />
        </mxCell>
        <mxCell id="tVv8EJueiG8kkGohXM46-99" value="Bill" style="text;html=1;align=center;verticalAlign=middle;resizable=0;points=[];autosize=1;strokeColor=none;fillColor=none;" vertex="1" parent="1">
          <mxGeometry x="500" y="585" width="40" height="30" as="geometry" />
        </mxCell>
        <mxCell id="tVv8EJueiG8kkGohXM46-100" value="Payment" style="text;html=1;align=center;verticalAlign=middle;resizable=0;points=[];autosize=1;strokeColor=none;fillColor=none;" vertex="1" parent="1">
          <mxGeometry x="560" y="585" width="70" height="30" as="geometry" />
        </mxCell>
        <mxCell id="tVv8EJueiG8kkGohXM46-108" style="edgeStyle=orthogonalEdgeStyle;rounded=0;orthogonalLoop=1;jettySize=auto;html=1;" edge="1" parent="1" source="tVv8EJueiG8kkGohXM46-106" target="tVv8EJueiG8kkGohXM46-98">
          <mxGeometry relative="1" as="geometry" />
        </mxCell>
        <mxCell id="tVv8EJueiG8kkGohXM46-106" value="Ticket" style="text;html=1;align=center;verticalAlign=middle;resizable=0;points=[];autosize=1;strokeColor=none;fillColor=none;" vertex="1" parent="1">
          <mxGeometry x="315" y="585" width="60" height="30" as="geometry" />
        </mxCell>
        <mxCell id="tVv8EJueiG8kkGohXM46-111" value="Bill" style="swimlane;fontStyle=1;align=center;verticalAlign=top;childLayout=stackLayout;horizontal=1;startSize=26;horizontalStack=0;resizeParent=1;resizeParentMax=0;resizeLast=0;collapsible=1;marginBottom=0;whiteSpace=wrap;html=1;" vertex="1" parent="1">
          <mxGeometry x="300" y="1380" width="160" height="174" as="geometry" />
        </mxCell>
        <mxCell id="tVv8EJueiG8kkGohXM46-112" value="- id: string&lt;div&gt;- amount: double&lt;/div&gt;&lt;div&gt;- exitTime: Date&lt;/div&gt;&lt;div&gt;- exitGate: Gate&lt;/div&gt;&lt;div&gt;- operator: Operator&lt;/div&gt;&lt;div&gt;- payment: Payment[]&lt;/div&gt;&lt;div&gt;- ticket: Ticket&lt;/div&gt;" style="text;strokeColor=none;fillColor=none;align=left;verticalAlign=top;spacingLeft=4;spacingRight=4;overflow=hidden;rotatable=0;points=[[0,0.5],[1,0.5]];portConstraint=eastwest;whiteSpace=wrap;html=1;" vertex="1" parent="tVv8EJueiG8kkGohXM46-111">
          <mxGeometry y="26" width="160" height="114" as="geometry" />
        </mxCell>
        <mxCell id="tVv8EJueiG8kkGohXM46-113" value="" style="line;strokeWidth=1;fillColor=none;align=left;verticalAlign=middle;spacingTop=-1;spacingLeft=3;spacingRight=3;rotatable=0;labelPosition=right;points=[];portConstraint=eastwest;strokeColor=inherit;" vertex="1" parent="tVv8EJueiG8kkGohXM46-111">
          <mxGeometry y="140" width="160" height="8" as="geometry" />
        </mxCell>
        <mxCell id="tVv8EJueiG8kkGohXM46-114" value="+ method(type): type" style="text;strokeColor=none;fillColor=none;align=left;verticalAlign=top;spacingLeft=4;spacingRight=4;overflow=hidden;rotatable=0;points=[[0,0.5],[1,0.5]];portConstraint=eastwest;whiteSpace=wrap;html=1;" vertex="1" parent="tVv8EJueiG8kkGohXM46-111">
          <mxGeometry y="148" width="160" height="26" as="geometry" />
        </mxCell>
        <mxCell id="tVv8EJueiG8kkGohXM46-119" value="DP - Strategy" style="text;html=1;align=center;verticalAlign=middle;resizable=0;points=[];autosize=1;strokeColor=none;fillColor=none;" vertex="1" parent="1">
          <mxGeometry x="25" y="1970" width="100" height="30" as="geometry" />
        </mxCell>
        <mxCell id="tVv8EJueiG8kkGohXM46-120" value="&amp;lt;&amp;lt;SlotAssignment&amp;gt;&amp;gt;" style="text;html=1;align=center;verticalAlign=middle;resizable=0;points=[];autosize=1;strokeColor=none;fillColor=none;" vertex="1" parent="1">
          <mxGeometry x="5" y="2008" width="130" height="30" as="geometry" />
        </mxCell>
        <mxCell id="tVv8EJueiG8kkGohXM46-121" value="&amp;lt;&amp;lt;FeeCalculation&amp;gt;&amp;gt;" style="text;html=1;align=center;verticalAlign=middle;resizable=0;points=[];autosize=1;strokeColor=none;fillColor=none;" vertex="1" parent="1">
          <mxGeometry x="415" y="2008" width="130" height="30" as="geometry" />
        </mxCell>
        <mxCell id="tVv8EJueiG8kkGohXM46-123" value="" style="endArrow=diamondThin;endFill=0;endSize=24;html=1;rounded=0;exitX=1.013;exitY=0.23;exitDx=0;exitDy=0;exitPerimeter=0;entryX=-0.006;entryY=0.728;entryDx=0;entryDy=0;entryPerimeter=0;" edge="1" parent="1" source="tVv8EJueiG8kkGohXM46-48" target="tVv8EJueiG8kkGohXM46-53">
          <mxGeometry width="160" relative="1" as="geometry">
            <mxPoint x="310" y="1390" as="sourcePoint" />
            <mxPoint x="280" y="1290" as="targetPoint" />
          </mxGeometry>
        </mxCell>
        <mxCell id="tVv8EJueiG8kkGohXM46-122" value="" style="endArrow=diamondThin;endFill=0;endSize=24;html=1;rounded=0;entryX=1.025;entryY=0.333;entryDx=0;entryDy=0;entryPerimeter=0;exitX=0;exitY=0.5;exitDx=0;exitDy=0;" edge="1" parent="1" source="tVv8EJueiG8kkGohXM46-73" target="tVv8EJueiG8kkGohXM46-53">
          <mxGeometry width="160" relative="1" as="geometry">
            <mxPoint x="420" y="1040" as="sourcePoint" />
            <mxPoint x="580" y="1040" as="targetPoint" />
          </mxGeometry>
        </mxCell>
        <mxCell id="tVv8EJueiG8kkGohXM46-124" value="" style="endArrow=diamondThin;endFill=0;endSize=24;html=1;rounded=0;entryX=1.019;entryY=0.886;entryDx=0;entryDy=0;exitX=0;exitY=0.25;exitDx=0;exitDy=0;entryPerimeter=0;" edge="1" parent="1" source="tVv8EJueiG8kkGohXM46-76" target="tVv8EJueiG8kkGohXM46-53">
          <mxGeometry width="160" relative="1" as="geometry">
            <mxPoint x="490" y="1380" as="sourcePoint" />
            <mxPoint x="650" y="1380" as="targetPoint" />
          </mxGeometry>
        </mxCell>
        <mxCell id="tVv8EJueiG8kkGohXM46-127" value="" style="endArrow=diamondThin;endFill=0;endSize=24;html=1;rounded=0;entryX=1;entryY=0.5;entryDx=0;entryDy=0;exitX=-0.015;exitY=0.385;exitDx=0;exitDy=0;exitPerimeter=0;" edge="1" parent="1" source="tVv8EJueiG8kkGohXM46-65" target="tVv8EJueiG8kkGohXM46-112">
          <mxGeometry width="160" relative="1" as="geometry">
            <mxPoint x="450" y="1370" as="sourcePoint" />
            <mxPoint x="610" y="1370" as="targetPoint" />
          </mxGeometry>
        </mxCell>
        <mxCell id="tVv8EJueiG8kkGohXM46-128" value="" style="endArrow=diamondThin;endFill=0;endSize=24;html=1;rounded=0;entryX=0.5;entryY=0;entryDx=0;entryDy=0;exitX=0.394;exitY=1.038;exitDx=0;exitDy=0;exitPerimeter=0;" edge="1" parent="1" source="tVv8EJueiG8kkGohXM46-55" target="tVv8EJueiG8kkGohXM46-111">
          <mxGeometry width="160" relative="1" as="geometry">
            <mxPoint x="380" y="1330" as="sourcePoint" />
            <mxPoint x="540" y="1330" as="targetPoint" />
          </mxGeometry>
        </mxCell>
        <mxCell id="tVv8EJueiG8kkGohXM46-129" value="" style="endArrow=diamondThin;endFill=0;endSize=24;html=1;rounded=0;exitX=0.194;exitY=1.115;exitDx=0;exitDy=0;exitPerimeter=0;entryX=0.863;entryY=-0.011;entryDx=0;entryDy=0;entryPerimeter=0;" edge="1" parent="1" source="tVv8EJueiG8kkGohXM46-79" target="tVv8EJueiG8kkGohXM46-111">
          <mxGeometry width="160" relative="1" as="geometry">
            <mxPoint x="440" y="1350" as="sourcePoint" />
            <mxPoint x="600" y="1350" as="targetPoint" />
          </mxGeometry>
        </mxCell>
        <mxCell id="tVv8EJueiG8kkGohXM46-130" value="" style="endArrow=diamondThin;endFill=0;endSize=24;html=1;rounded=0;entryX=0.881;entryY=0.015;entryDx=0;entryDy=0;entryPerimeter=0;exitX=0.431;exitY=1.115;exitDx=0;exitDy=0;exitPerimeter=0;" edge="1" parent="1" source="tVv8EJueiG8kkGohXM46-35" target="tVv8EJueiG8kkGohXM46-52">
          <mxGeometry width="160" relative="1" as="geometry">
            <mxPoint x="590" y="1104" as="sourcePoint" />
            <mxPoint x="469" y="1137" as="targetPoint" />
          </mxGeometry>
        </mxCell>
        <mxCell id="tVv8EJueiG8kkGohXM46-131" value="" style="endArrow=diamondThin;endFill=0;endSize=24;html=1;rounded=0;entryX=0.75;entryY=0;entryDx=0;entryDy=0;exitX=0.563;exitY=1.231;exitDx=0;exitDy=0;exitPerimeter=0;" edge="1" parent="1" source="tVv8EJueiG8kkGohXM46-35" target="tVv8EJueiG8kkGohXM46-111">
          <mxGeometry width="160" relative="1" as="geometry">
            <mxPoint x="549" y="947" as="sourcePoint" />
            <mxPoint x="446" y="1076" as="targetPoint" />
            <Array as="points">
              <mxPoint x="490" y="1290" />
            </Array>
          </mxGeometry>
        </mxCell>
        <mxCell id="tVv8EJueiG8kkGohXM46-132" value="Near" style="text;html=1;align=center;verticalAlign=middle;resizable=0;points=[];autosize=1;strokeColor=none;fillColor=none;" vertex="1" parent="1">
          <mxGeometry x="10" y="2040" width="50" height="30" as="geometry" />
        </mxCell>
        <mxCell id="tVv8EJueiG8kkGohXM46-133" value="Far" style="text;html=1;align=center;verticalAlign=middle;resizable=0;points=[];autosize=1;strokeColor=none;fillColor=none;" vertex="1" parent="1">
          <mxGeometry x="74" y="2040" width="40" height="30" as="geometry" />
        </mxCell>
        <mxCell id="tVv8EJueiG8kkGohXM46-134" value="Random" style="text;html=1;align=center;verticalAlign=middle;resizable=0;points=[];autosize=1;strokeColor=none;fillColor=none;" vertex="1" parent="1">
          <mxGeometry x="130" y="2040" width="70" height="30" as="geometry" />
        </mxCell>
        <mxCell id="tVv8EJueiG8kkGohXM46-135" value="Weekend&amp;nbsp; |&amp;nbsp; Weekday |&amp;nbsp; Festivel&amp;nbsp; &amp;nbsp;FEE" style="text;html=1;align=center;verticalAlign=middle;resizable=0;points=[];autosize=1;strokeColor=none;fillColor=none;" vertex="1" parent="1">
          <mxGeometry x="365" y="2050" width="230" height="30" as="geometry" />
        </mxCell>
        <mxCell id="tVv8EJueiG8kkGohXM46-136" value="&lt;b&gt;TicketStatus&lt;/b&gt;" style="swimlane;fontStyle=0;childLayout=stackLayout;horizontal=1;startSize=26;fillColor=none;horizontalStack=0;resizeParent=1;resizeParentMax=0;resizeLast=0;collapsible=1;marginBottom=0;whiteSpace=wrap;html=1;" vertex="1" parent="1">
          <mxGeometry x="240" y="1650" width="140" height="78" as="geometry" />
        </mxCell>
        <mxCell id="tVv8EJueiG8kkGohXM46-137" value="ENTRY" style="text;strokeColor=none;fillColor=none;align=left;verticalAlign=top;spacingLeft=4;spacingRight=4;overflow=hidden;rotatable=0;points=[[0,0.5],[1,0.5]];portConstraint=eastwest;whiteSpace=wrap;html=1;" vertex="1" parent="tVv8EJueiG8kkGohXM46-136">
          <mxGeometry y="26" width="140" height="26" as="geometry" />
        </mxCell>
        <mxCell id="tVv8EJueiG8kkGohXM46-138" value="EXIT" style="text;strokeColor=none;fillColor=none;align=left;verticalAlign=top;spacingLeft=4;spacingRight=4;overflow=hidden;rotatable=0;points=[[0,0.5],[1,0.5]];portConstraint=eastwest;whiteSpace=wrap;html=1;" vertex="1" parent="tVv8EJueiG8kkGohXM46-136">
          <mxGeometry y="52" width="140" height="26" as="geometry" />
        </mxCell>
        <mxCell id="tVv8EJueiG8kkGohXM46-140" value="&lt;b&gt;PaymentMode&lt;/b&gt;" style="swimlane;fontStyle=0;childLayout=stackLayout;horizontal=1;startSize=26;fillColor=none;horizontalStack=0;resizeParent=1;resizeParentMax=0;resizeLast=0;collapsible=1;marginBottom=0;whiteSpace=wrap;html=1;" vertex="1" parent="1">
          <mxGeometry x="410" y="1650" width="140" height="78" as="geometry" />
        </mxCell>
        <mxCell id="tVv8EJueiG8kkGohXM46-141" value="CASH" style="text;strokeColor=none;fillColor=none;align=left;verticalAlign=top;spacingLeft=4;spacingRight=4;overflow=hidden;rotatable=0;points=[[0,0.5],[1,0.5]];portConstraint=eastwest;whiteSpace=wrap;html=1;" vertex="1" parent="tVv8EJueiG8kkGohXM46-140">
          <mxGeometry y="26" width="140" height="26" as="geometry" />
        </mxCell>
        <mxCell id="tVv8EJueiG8kkGohXM46-142" value="UPI" style="text;strokeColor=none;fillColor=none;align=left;verticalAlign=top;spacingLeft=4;spacingRight=4;overflow=hidden;rotatable=0;points=[[0,0.5],[1,0.5]];portConstraint=eastwest;whiteSpace=wrap;html=1;" vertex="1" parent="tVv8EJueiG8kkGohXM46-140">
          <mxGeometry y="52" width="140" height="26" as="geometry" />
        </mxCell>
        <mxCell id="tVv8EJueiG8kkGohXM46-143" value="&lt;b&gt;PaymentStatus&lt;/b&gt;" style="swimlane;fontStyle=0;childLayout=stackLayout;horizontal=1;startSize=26;fillColor=none;horizontalStack=0;resizeParent=1;resizeParentMax=0;resizeLast=0;collapsible=1;marginBottom=0;whiteSpace=wrap;html=1;" vertex="1" parent="1">
          <mxGeometry x="575" y="1650" width="140" height="104" as="geometry" />
        </mxCell>
        <mxCell id="tVv8EJueiG8kkGohXM46-144" value="SUCCESS" style="text;strokeColor=none;fillColor=none;align=left;verticalAlign=top;spacingLeft=4;spacingRight=4;overflow=hidden;rotatable=0;points=[[0,0.5],[1,0.5]];portConstraint=eastwest;whiteSpace=wrap;html=1;" vertex="1" parent="tVv8EJueiG8kkGohXM46-143">
          <mxGeometry y="26" width="140" height="26" as="geometry" />
        </mxCell>
        <mxCell id="tVv8EJueiG8kkGohXM46-146" value="PROCESSING" style="text;strokeColor=none;fillColor=none;align=left;verticalAlign=top;spacingLeft=4;spacingRight=4;overflow=hidden;rotatable=0;points=[[0,0.5],[1,0.5]];portConstraint=eastwest;whiteSpace=wrap;html=1;" vertex="1" parent="tVv8EJueiG8kkGohXM46-143">
          <mxGeometry y="52" width="140" height="26" as="geometry" />
        </mxCell>
        <mxCell id="tVv8EJueiG8kkGohXM46-145" value="FAILED" style="text;strokeColor=none;fillColor=none;align=left;verticalAlign=top;spacingLeft=4;spacingRight=4;overflow=hidden;rotatable=0;points=[[0,0.5],[1,0.5]];portConstraint=eastwest;whiteSpace=wrap;html=1;" vertex="1" parent="tVv8EJueiG8kkGohXM46-143">
          <mxGeometry y="78" width="140" height="26" as="geometry" />
        </mxCell>
        <mxCell id="tVv8EJueiG8kkGohXM46-147" value="Schema Design" style="text;html=1;align=center;verticalAlign=middle;resizable=0;points=[];autosize=1;strokeColor=none;fillColor=none;fontStyle=1" vertex="1" parent="1">
          <mxGeometry x="5" y="2168" width="110" height="30" as="geometry" />
        </mxCell>
        <mxCell id="tVv8EJueiG8kkGohXM46-148" value="parking_lots" style="text;html=1;align=left;verticalAlign=middle;resizable=0;points=[];autosize=1;strokeColor=none;fillColor=none;" vertex="1" parent="1">
          <mxGeometry x="25" y="2230" width="90" height="30" as="geometry" />
        </mxCell>
        <mxCell id="tVv8EJueiG8kkGohXM46-149" value="parking_floors&lt;div&gt;&lt;br&gt;&lt;/div&gt;" style="text;html=1;align=left;verticalAlign=middle;resizable=0;points=[];autosize=1;strokeColor=none;fillColor=none;" vertex="1" parent="1">
          <mxGeometry x="24" y="2298" width="100" height="40" as="geometry" />
        </mxCell>
        <mxCell id="tVv8EJueiG8kkGohXM46-150" value="gates" style="text;html=1;align=left;verticalAlign=middle;resizable=0;points=[];autosize=1;strokeColor=none;fillColor=none;" vertex="1" parent="1">
          <mxGeometry x="25" y="2370" width="50" height="30" as="geometry" />
        </mxCell>
        <mxCell id="tVv8EJueiG8kkGohXM46-151" value="parking_slots" style="text;html=1;align=left;verticalAlign=middle;resizable=0;points=[];autosize=1;strokeColor=none;fillColor=none;" vertex="1" parent="1">
          <mxGeometry x="25" y="2440" width="90" height="30" as="geometry" />
        </mxCell>
        <mxCell id="tVv8EJueiG8kkGohXM46-152" value="operators" style="text;html=1;align=left;verticalAlign=middle;resizable=0;points=[];autosize=1;strokeColor=none;fillColor=none;" vertex="1" parent="1">
          <mxGeometry x="25" y="2520" width="70" height="30" as="geometry" />
        </mxCell>
        <mxCell id="tVv8EJueiG8kkGohXM46-153" value="tickets" style="text;html=1;align=left;verticalAlign=middle;resizable=0;points=[];autosize=1;strokeColor=none;fillColor=none;" vertex="1" parent="1">
          <mxGeometry x="24" y="2588" width="60" height="30" as="geometry" />
        </mxCell>
        <mxCell id="tVv8EJueiG8kkGohXM46-154" value="bills" style="text;html=1;align=left;verticalAlign=middle;resizable=0;points=[];autosize=1;strokeColor=none;fillColor=none;" vertex="1" parent="1">
          <mxGeometry x="24" y="2658" width="40" height="30" as="geometry" />
        </mxCell>
        <mxCell id="tVv8EJueiG8kkGohXM46-155" value="payments" style="text;html=1;align=left;verticalAlign=middle;resizable=0;points=[];autosize=1;strokeColor=none;fillColor=none;" vertex="1" parent="1">
          <mxGeometry x="24" y="2718" width="80" height="30" as="geometry" />
        </mxCell>
        <mxCell id="tVv8EJueiG8kkGohXM46-156" value="vehicles" style="text;html=1;align=left;verticalAlign=middle;resizable=0;points=[];autosize=1;strokeColor=none;fillColor=none;" vertex="1" parent="1">
          <mxGeometry x="24" y="2798" width="70" height="30" as="geometry" />
        </mxCell>
        <mxCell id="tVv8EJueiG8kkGohXM46-157" value="id | name | address | total_capcity |&amp;nbsp;" style="rounded=0;whiteSpace=wrap;html=1;align=left;" vertex="1" parent="1">
          <mxGeometry x="24" y="2260" width="590" height="30" as="geometry" />
        </mxCell>
        <mxCell id="tVv8EJueiG8kkGohXM46-158" value="id | floor_number | address |&amp;nbsp;&lt;span style=&quot;background-color: rgb(255, 204, 204);&quot;&gt;parking_lot_id&lt;/span&gt;&amp;nbsp;&amp;nbsp;" style="rounded=0;whiteSpace=wrap;html=1;align=left;" vertex="1" parent="1">
          <mxGeometry x="24" y="2330" width="590" height="30" as="geometry" />
        </mxCell>
        <mxCell id="tVv8EJueiG8kkGohXM46-159" value="id | gate_number | &lt;span style=&quot;background-color: rgb(255, 204, 204);&quot;&gt;parking_lot_id&lt;/span&gt;&amp;nbsp;" style="rounded=0;whiteSpace=wrap;html=1;align=left;" vertex="1" parent="1">
          <mxGeometry x="25" y="2400" width="590" height="30" as="geometry" />
        </mxCell>
        <mxCell id="tVv8EJueiG8kkGohXM46-160" value="Steps to design Schema&amp;nbsp;&lt;br&gt;1. Identify entities and enums from class diagram&lt;div&gt;2. Add primitive columns for the table schema&lt;/div&gt;&lt;div&gt;3. Find cardinality between tables and add the relationship ids&lt;/div&gt;" style="text;html=1;align=center;verticalAlign=middle;resizable=0;points=[];autosize=1;strokeColor=none;fillColor=none;" vertex="1" parent="1">
          <mxGeometry x="430" y="2100" width="350" height="70" as="geometry" />
        </mxCell>
        <mxCell id="tVv8EJueiG8kkGohXM46-161" value="id | slot_number |&amp;nbsp;&lt;span style=&quot;background-color: rgb(255, 204, 204);&quot;&gt;parking_floor_id&lt;/span&gt;&amp;nbsp;" style="rounded=0;whiteSpace=wrap;html=1;align=left;" vertex="1" parent="1">
          <mxGeometry x="25" y="2470" width="590" height="30" as="geometry" />
        </mxCell>
        <mxCell id="tVv8EJueiG8kkGohXM46-162" value="id | name | emp_id" style="rounded=0;whiteSpace=wrap;html=1;align=left;" vertex="1" parent="1">
          <mxGeometry x="25" y="2550" width="590" height="30" as="geometry" />
        </mxCell>
        <mxCell id="tVv8EJueiG8kkGohXM46-163" value="id | entry_time |&amp;nbsp;&lt;span style=&quot;background-color: rgb(255, 204, 204);&quot;&gt;parking_slot_id&lt;/span&gt;&amp;nbsp;&amp;nbsp;&amp;nbsp;" style="rounded=0;whiteSpace=wrap;html=1;align=left;" vertex="1" parent="1">
          <mxGeometry x="24" y="2618" width="590" height="30" as="geometry" />
        </mxCell>
        <mxCell id="tVv8EJueiG8kkGohXM46-164" value="id | amount | exit_time&amp;nbsp;" style="rounded=0;whiteSpace=wrap;html=1;align=left;" vertex="1" parent="1">
          <mxGeometry x="24" y="2688" width="590" height="30" as="geometry" />
        </mxCell>
        <mxCell id="tVv8EJueiG8kkGohXM46-165" value="id | date | refNumber | amount&amp;nbsp;" style="rounded=0;whiteSpace=wrap;html=1;align=left;" vertex="1" parent="1">
          <mxGeometry x="25" y="2748" width="590" height="30" as="geometry" />
        </mxCell>
        <mxCell id="tVv8EJueiG8kkGohXM46-166" value="id | number | owner_name" style="rounded=0;whiteSpace=wrap;html=1;align=left;" vertex="1" parent="1">
          <mxGeometry x="24" y="2828" width="590" height="30" as="geometry" />
        </mxCell>
        <mxCell id="tVv8EJueiG8kkGohXM46-167" value="vehicle_types" style="text;html=1;align=left;verticalAlign=middle;resizable=0;points=[];autosize=1;strokeColor=none;fillColor=none;" vertex="1" parent="1">
          <mxGeometry x="25" y="2890" width="100" height="30" as="geometry" />
        </mxCell>
        <mxCell id="tVv8EJueiG8kkGohXM46-168" value="id | value |&amp;nbsp;&lt;span style=&quot;color: rgba(0, 0, 0, 0); font-family: monospace; font-size: 0px; text-wrap: nowrap;&quot;&gt;%3CmxGraphModel%3E%3Croot%3E%3CmxCell%20id%3D%220%22%2F%3E%3CmxCell%20id%3D%221%22%20parent%3D%220%22%2F%3E%3CmxCell%20id%3D%222%22%20value%3D%22vehicles%22%20style%3D%22text%3Bhtml%3D1%3Balign%3Dleft%3BverticalAlign%3Dmiddle%3Bresizable%3D0%3Bpoints%3D%5B%5D%3Bautosize%3D1%3BstrokeColor%3Dnone%3BfillColor%3Dnone%3B%22%20vertex%3D%221%22%20parent%3D%221%22%3E%3CmxGeometry%20x%3D%2224%22%20y%3D%222798%22%20width%3D%2270%22%20height%3D%2230%22%20as%3D%22geometry%22%2F%3E%3C%2FmxCell%3E%3CmxCell%20id%3D%223%22%20value%3D%22id%20%7C%20number%20%7C%20owner_name%22%20style%3D%22rounded%3D0%3BwhiteSpace%3Dwrap%3Bhtml%3D1%3Balign%3Dleft%3B%22%20vertex%3D%221%22%20parent%3D%221%22%3E%3CmxGeometry%20x%3D%2224%22%20y%3D%222828%22%20width%3D%22590%22%20height%3D%2230%22%20as%3D%22geometry%22%2F%3E%3C%2FmxCell%3E%3C%2Froot%3E%3C%2FmxGraphModel%3E&lt;/span&gt;&lt;span style=&quot;color: rgba(0, 0, 0, 0); font-family: monospace; font-size: 0px; text-wrap: nowrap;&quot;&gt;%3CmxGraphModel%3E%3Croot%3E%3CmxCell%20id%3D%220%22%2F%3E%3CmxCell%20id%3D%221%22%20parent%3D%220%22%2F%3E%3CmxCell%20id%3D%222%22%20value%3D%22vehicles%22%20style%3D%22text%3Bhtml%3D1%3Balign%3Dleft%3BverticalAlign%3Dmiddle%3Bresizable%3D0%3Bpoints%3D%5B%5D%3Bautosize%3D1%3BstrokeColor%3Dnone%3BfillColor%3Dnone%3B%22%20vertex%3D%221%22%20parent%3D%221%22%3E%3CmxGeometry%20x%3D%2224%22%20y%3D%222798%22%20width%3D%2270%22%20height%3D%2230%22%20as%3D%22geometry%22%2F%3E%3C%2FmxCell%3E%3CmxCell%20id%3D%223%22%20value%3D%22id%20%7C%20number%20%7C%20owner_name%22%20style%3D%22rounded%3D0%3BwhiteSpace%3Dwrap%3Bhtml%3D1%3Balign%3Dleft%3B%22%20vertex%3D%221%22%20parent%3D%221%22%3E%3CmxGeometry%20x%3D%2224%22%20y%3D%222828%22%20width%3D%22590%22%20height%3D%2230%22%20as%3D%22geometry%22%2F%3E%3C%2FmxCell%3E%3C%2Froot%3E%3C%2FmxGraphModel%3E&amp;nbsp;&lt;/span&gt;&lt;span style=&quot;background-color: rgb(255, 204, 204);&quot;&gt;parking_lot_id&lt;/span&gt;&amp;nbsp;" style="rounded=0;whiteSpace=wrap;html=1;align=left;" vertex="1" parent="1">
          <mxGeometry x="25" y="2920" width="590" height="30" as="geometry" />
        </mxCell>
        <mxCell id="tVv8EJueiG8kkGohXM46-169" value="parking_lot_vehicle_types" style="text;html=1;align=left;verticalAlign=middle;resizable=0;points=[];autosize=1;strokeColor=none;fillColor=none;" vertex="1" parent="1">
          <mxGeometry x="24" y="2990" width="160" height="30" as="geometry" />
        </mxCell>
        <mxCell id="tVv8EJueiG8kkGohXM46-170" value="id | &lt;span style=&quot;color: rgba(0, 0, 0, 0); font-family: monospace; font-size: 0px; text-wrap: nowrap;&quot;&gt;%3CmxGraphModel%3E%3Croot%3E%3CmxCell%20id%3D%220%22%2F%3E%3CmxCell%20id%3D%221%22%20parent%3D%220%22%2F%3E%3CmxCell%20id%3D%222%22%20value%3D%22vehicles%22%20style%3D%22text%3Bhtml%3D1%3Balign%3Dleft%3BverticalAlign%3Dmiddle%3Bresizable%3D0%3Bpoints%3D%5B%5D%3Bautosize%3D1%3BstrokeColor%3Dnone%3BfillColor%3Dnone%3B%22%20vertex%3D%221%22%20parent%3D%221%22%3E%3CmxGeometry%20x%3D%2224%22%20y%3D%222798%22%20width%3D%2270%22%20height%3D%2230%22%20as%3D%22geometry%22%2F%3E%3C%2FmxCell%3E%3CmxCell%20id%3D%223%22%20value%3D%22id%20%7C%20number%20%7C%20owner_name%22%20style%3D%22rounded%3D0%3BwhiteSpace%3Dwrap%3Bhtml%3D1%3Balign%3Dleft%3B%22%20vertex%3D%221%22%20parent%3D%221%22%3E%3CmxGeometry%20x%3D%2224%22%20y%3D%222828%22%20width%3D%22590%22%20height%3D%2230%22%20as%3D%22geometry%22%2F%3E%3C%2FmxCell%3E%3C%2Froot%3E%3C%2FmxGraphModel%3E&lt;/span&gt;&lt;span style=&quot;color: rgba(0, 0, 0, 0); font-family: monospace; font-size: 0px; text-wrap: nowrap;&quot;&gt;%3CmxGraphModel%3E%3Croot%3E%3CmxCell%20id%3D%220%22%2F%3E%3CmxCell%20id%3D%221%22%20parent%3D%220%22%2F%3E%3CmxCell%20id%3D%222%22%20value%3D%22vehicles%22%20style%3D%22text%3Bhtml%3D1%3Balign%3Dleft%3BverticalAlign%3Dmiddle%3Bresizable%3D0%3Bpoints%3D%5B%5D%3Bautosize%3D1%3BstrokeColor%3Dnone%3BfillColor%3Dnone%3B%22%20vertex%3D%221%22%20parent%3D%221%22%3E%3CmxGeometry%20x%3D%2224%22%20y%3D%222798%22%20width%3D%2270%22%20height%3D%2230%22%20as%3D%22geometry%22%2F%3E%3C%2FmxCell%3E%3CmxCell%20id%3D%223%22%20value%3D%22id%20%7C%20number%20%7C%20owner_name%22%20style%3D%22rounded%3D0%3BwhiteSpace%3Dwrap%3Bhtml%3D1%3Balign%3Dleft%3B%22%20vertex%3D%221%22%20parent%3D%221%22%3E%3CmxGeometry%20x%3D%2224%22%20y%3D%222828%22%20width%3D%22590%22%20height%3D%2230%22%20as%3D%22geometry%22%2F%3E%3C%2FmxCell%3E%3C%2Froot%3E%3C%2FmxGraphModel%3E&amp;nbsp;&lt;/span&gt;&lt;span style=&quot;background-color: rgb(255, 204, 204);&quot;&gt;parking_lot_id&lt;/span&gt;&amp;nbsp;| &lt;span style=&quot;background-color: rgb(255, 204, 204);&quot;&gt;vehicle_type_id&lt;/span&gt; | capacity" style="rounded=0;whiteSpace=wrap;html=1;align=left;" vertex="1" parent="1">
          <mxGeometry x="24" y="3020" width="590" height="30" as="geometry" />
        </mxCell>
        <mxCell id="tVv8EJueiG8kkGohXM46-175" value="" style="edgeStyle=orthogonalEdgeStyle;rounded=0;orthogonalLoop=1;jettySize=auto;html=1;" edge="1" parent="1" source="tVv8EJueiG8kkGohXM46-171" target="tVv8EJueiG8kkGohXM46-174">
          <mxGeometry relative="1" as="geometry" />
        </mxCell>
        <mxCell id="tVv8EJueiG8kkGohXM46-171" value="How to handle &lt;b&gt;live capacity&amp;nbsp;&lt;/b&gt;" style="text;html=1;align=center;verticalAlign=middle;resizable=0;points=[];autosize=1;strokeColor=none;fillColor=none;" vertex="1" parent="1">
          <mxGeometry x="10" y="3080" width="180" height="30" as="geometry" />
        </mxCell>
        <mxCell id="tVv8EJueiG8kkGohXM46-174" value="Cache capacity. not required to store in DB. As its update very frequently&amp;nbsp;" style="text;html=1;align=center;verticalAlign=middle;resizable=0;points=[];autosize=1;strokeColor=none;fillColor=none;" vertex="1" parent="1">
          <mxGeometry x="232.5" y="3080" width="410" height="30" as="geometry" />
        </mxCell>
        <mxCell id="tVv8EJueiG8kkGohXM46-176" value="This is to store capacity of vehicles based on vehicle types for &lt;b&gt;entire parking lot&lt;/b&gt;" style="text;html=1;align=center;verticalAlign=middle;resizable=0;points=[];autosize=1;strokeColor=none;fillColor=none;fontStyle=4" vertex="1" parent="1">
          <mxGeometry x="200" y="2990" width="450" height="30" as="geometry" />
        </mxCell>
        <mxCell id="tVv8EJueiG8kkGohXM46-177" value="Parking floor ---&amp;gt; Vechile_Types" style="text;html=1;align=center;verticalAlign=middle;resizable=0;points=[];autosize=1;strokeColor=none;fillColor=none;fontStyle=2" vertex="1" parent="1">
          <mxGeometry x="25" y="3140" width="190" height="30" as="geometry" />
        </mxCell>
        <mxCell id="tVv8EJueiG8kkGohXM46-180" value="Parking slot ---&amp;gt; Vechile_Types" style="text;html=1;align=center;verticalAlign=middle;resizable=0;points=[];autosize=1;strokeColor=none;fillColor=none;fontStyle=2" vertex="1" parent="1">
          <mxGeometry x="17" y="3310" width="190" height="30" as="geometry" />
        </mxCell>
        <mxCell id="tVv8EJueiG8kkGohXM46-181" value="parking_floor_vehicle_types" style="text;html=1;align=left;verticalAlign=middle;resizable=0;points=[];autosize=1;strokeColor=none;fillColor=none;" vertex="1" parent="1">
          <mxGeometry x="27" y="3172" width="170" height="30" as="geometry" />
        </mxCell>
        <mxCell id="tVv8EJueiG8kkGohXM46-182" value="id | &lt;span style=&quot;color: rgba(0, 0, 0, 0); font-family: monospace; font-size: 0px; text-wrap: nowrap;&quot;&gt;%3CmxGraphModel%3E%3Croot%3E%3CmxCell%20id%3D%220%22%2F%3E%3CmxCell%20id%3D%221%22%20parent%3D%220%22%2F%3E%3CmxCell%20id%3D%222%22%20value%3D%22vehicles%22%20style%3D%22text%3Bhtml%3D1%3Balign%3Dleft%3BverticalAlign%3Dmiddle%3Bresizable%3D0%3Bpoints%3D%5B%5D%3Bautosize%3D1%3BstrokeColor%3Dnone%3BfillColor%3Dnone%3B%22%20vertex%3D%221%22%20parent%3D%221%22%3E%3CmxGeometry%20x%3D%2224%22%20y%3D%222798%22%20width%3D%2270%22%20height%3D%2230%22%20as%3D%22geometry%22%2F%3E%3C%2FmxCell%3E%3CmxCell%20id%3D%223%22%20value%3D%22id%20%7C%20number%20%7C%20owner_name%22%20style%3D%22rounded%3D0%3BwhiteSpace%3Dwrap%3Bhtml%3D1%3Balign%3Dleft%3B%22%20vertex%3D%221%22%20parent%3D%221%22%3E%3CmxGeometry%20x%3D%2224%22%20y%3D%222828%22%20width%3D%22590%22%20height%3D%2230%22%20as%3D%22geometry%22%2F%3E%3C%2FmxCell%3E%3C%2Froot%3E%3C%2FmxGraphModel%3E&lt;/span&gt;&lt;span style=&quot;color: rgba(0, 0, 0, 0); font-family: monospace; font-size: 0px; text-wrap: nowrap;&quot;&gt;%3CmxGraphModel%3E%3Croot%3E%3CmxCell%20id%3D%220%22%2F%3E%3CmxCell%20id%3D%221%22%20parent%3D%220%22%2F%3E%3CmxCell%20id%3D%222%22%20value%3D%22vehicles%22%20style%3D%22text%3Bhtml%3D1%3Balign%3Dleft%3BverticalAlign%3Dmiddle%3Bresizable%3D0%3Bpoints%3D%5B%5D%3Bautosize%3D1%3BstrokeColor%3Dnone%3BfillColor%3Dnone%3B%22%20vertex%3D%221%22%20parent%3D%221%22%3E%3CmxGeometry%20x%3D%2224%22%20y%3D%222798%22%20width%3D%2270%22%20height%3D%2230%22%20as%3D%22geometry%22%2F%3E%3C%2FmxCell%3E%3CmxCell%20id%3D%223%22%20value%3D%22id%20%7C%20number%20%7C%20owner_name%22%20style%3D%22rounded%3D0%3BwhiteSpace%3Dwrap%3Bhtml%3D1%3Balign%3Dleft%3B%22%20vertex%3D%221%22%20parent%3D%221%22%3E%3CmxGeometry%20x%3D%2224%22%20y%3D%222828%22%20width%3D%22590%22%20height%3D%2230%22%20as%3D%22geometry%22%2F%3E%3C%2FmxCell%3E%3C%2Froot%3E%3C%2FmxGraphModel%3E&amp;nbsp;&lt;/span&gt;&lt;span style=&quot;background-color: rgb(255, 204, 204);&quot;&gt;parking_floor_id&lt;/span&gt;&amp;nbsp;| &lt;span style=&quot;background-color: rgb(255, 204, 204);&quot;&gt;vehicle_type_id&lt;/span&gt; | capacity" style="rounded=0;whiteSpace=wrap;html=1;align=left;" vertex="1" parent="1">
          <mxGeometry x="27" y="3202" width="590" height="30" as="geometry" />
        </mxCell>
        <mxCell id="tVv8EJueiG8kkGohXM46-183" value="This is to store capacity of vehicles based on vehicle types for &lt;b&gt;entire floor&lt;/b&gt;" style="text;html=1;align=center;verticalAlign=middle;resizable=0;points=[];autosize=1;strokeColor=none;fillColor=none;fontStyle=4" vertex="1" parent="1">
          <mxGeometry x="218" y="3172" width="420" height="30" as="geometry" />
        </mxCell>
        <mxCell id="tVv8EJueiG8kkGohXM46-185" value="Capacity store the total available capactiy in the table, not the calculated" style="text;html=1;align=center;verticalAlign=middle;resizable=0;points=[];autosize=1;strokeColor=#d79b00;fillColor=#ffe6cc;" vertex="1" parent="1">
          <mxGeometry x="365" y="3120" width="410" height="30" as="geometry" />
        </mxCell>
        <mxCell id="tVv8EJueiG8kkGohXM46-188" value="By &lt;b&gt;joining &lt;/b&gt;parking_floor_vechile_type, floor, parkinglot table we can know the capacity of entire parking lot" style="text;html=1;align=center;verticalAlign=middle;resizable=0;points=[];autosize=1;strokeColor=#d79b00;fillColor=#ffe6cc;" vertex="1" parent="1">
          <mxGeometry x="205" y="3260" width="590" height="30" as="geometry" />
        </mxCell>
        <mxCell id="tVv8EJueiG8kkGohXM46-190" value="" style="verticalLabelPosition=bottom;verticalAlign=top;html=1;shadow=0;dashed=0;strokeWidth=1;shape=mxgraph.ios.iDeleteIcon;fillColor=#e8878E;fillColor2=#BD1421;strokeColor=#ffffff;sketch=0;" vertex="1" parent="1">
          <mxGeometry x="675" y="3005" width="35" height="35" as="geometry" />
        </mxCell>
        <mxCell id="tVv8EJueiG8kkGohXM46-191" value="parking_slot_vehicle_types" style="text;html=1;align=left;verticalAlign=middle;resizable=0;points=[];autosize=1;strokeColor=none;fillColor=none;" vertex="1" parent="1">
          <mxGeometry x="29.5" y="3360" width="170" height="30" as="geometry" />
        </mxCell>
        <mxCell id="tVv8EJueiG8kkGohXM46-192" value="id | &lt;span style=&quot;color: rgba(0, 0, 0, 0); font-family: monospace; font-size: 0px; text-wrap: nowrap;&quot;&gt;%3CmxGraphModel%3E%3Croot%3E%3CmxCell%20id%3D%220%22%2F%3E%3CmxCell%20id%3D%221%22%20parent%3D%220%22%2F%3E%3CmxCell%20id%3D%222%22%20value%3D%22vehicles%22%20style%3D%22text%3Bhtml%3D1%3Balign%3Dleft%3BverticalAlign%3Dmiddle%3Bresizable%3D0%3Bpoints%3D%5B%5D%3Bautosize%3D1%3BstrokeColor%3Dnone%3BfillColor%3Dnone%3B%22%20vertex%3D%221%22%20parent%3D%221%22%3E%3CmxGeometry%20x%3D%2224%22%20y%3D%222798%22%20width%3D%2270%22%20height%3D%2230%22%20as%3D%22geometry%22%2F%3E%3C%2FmxCell%3E%3CmxCell%20id%3D%223%22%20value%3D%22id%20%7C%20number%20%7C%20owner_name%22%20style%3D%22rounded%3D0%3BwhiteSpace%3Dwrap%3Bhtml%3D1%3Balign%3Dleft%3B%22%20vertex%3D%221%22%20parent%3D%221%22%3E%3CmxGeometry%20x%3D%2224%22%20y%3D%222828%22%20width%3D%22590%22%20height%3D%2230%22%20as%3D%22geometry%22%2F%3E%3C%2FmxCell%3E%3C%2Froot%3E%3C%2FmxGraphModel%3E&lt;/span&gt;&lt;span style=&quot;color: rgba(0, 0, 0, 0); font-family: monospace; font-size: 0px; text-wrap: nowrap;&quot;&gt;%3CmxGraphModel%3E%3Croot%3E%3CmxCell%20id%3D%220%22%2F%3E%3CmxCell%20id%3D%221%22%20parent%3D%220%22%2F%3E%3CmxCell%20id%3D%222%22%20value%3D%22vehicles%22%20style%3D%22text%3Bhtml%3D1%3Balign%3Dleft%3BverticalAlign%3Dmiddle%3Bresizable%3D0%3Bpoints%3D%5B%5D%3Bautosize%3D1%3BstrokeColor%3Dnone%3BfillColor%3Dnone%3B%22%20vertex%3D%221%22%20parent%3D%221%22%3E%3CmxGeometry%20x%3D%2224%22%20y%3D%222798%22%20width%3D%2270%22%20height%3D%2230%22%20as%3D%22geometry%22%2F%3E%3C%2FmxCell%3E%3CmxCell%20id%3D%223%22%20value%3D%22id%20%7C%20number%20%7C%20owner_name%22%20style%3D%22rounded%3D0%3BwhiteSpace%3Dwrap%3Bhtml%3D1%3Balign%3Dleft%3B%22%20vertex%3D%221%22%20parent%3D%221%22%3E%3CmxGeometry%20x%3D%2224%22%20y%3D%222828%22%20width%3D%22590%22%20height%3D%2230%22%20as%3D%22geometry%22%2F%3E%3C%2FmxCell%3E%3C%2Froot%3E%3C%2FmxGraphModel%3E&amp;nbsp;&lt;/span&gt;&lt;span style=&quot;background-color: rgb(255, 204, 204);&quot;&gt;parking_floor_id&lt;/span&gt;&amp;nbsp;| &lt;span style=&quot;background-color: rgb(255, 204, 204);&quot;&gt;vehicle_type_id&lt;/span&gt; | capacity" style="rounded=0;whiteSpace=wrap;html=1;align=left;" vertex="1" parent="1">
          <mxGeometry x="29.5" y="3390" width="590" height="30" as="geometry" />
        </mxCell>
        <mxCell id="tVv8EJueiG8kkGohXM46-193" value="This is to store capacity of vehicles based on vehicle types for &lt;b&gt;entire floor&lt;/b&gt;" style="text;html=1;align=center;verticalAlign=middle;resizable=0;points=[];autosize=1;strokeColor=none;fillColor=none;fontStyle=4" vertex="1" parent="1">
          <mxGeometry x="220.5" y="3360" width="420" height="30" as="geometry" />
        </mxCell>
        <mxCell id="tVv8EJueiG8kkGohXM46-196" value="" style="verticalLabelPosition=bottom;verticalAlign=top;html=1;shadow=0;dashed=0;strokeWidth=1;shape=mxgraph.ios.iDeleteIcon;fillColor=#e8878E;fillColor2=#BD1421;strokeColor=#ffffff;sketch=0;" vertex="1" parent="1">
          <mxGeometry x="642.5" y="3172" width="35" height="35" as="geometry" />
        </mxCell>
        <mxCell id="tVv8EJueiG8kkGohXM46-198" value="Same as above, we can &lt;b&gt;join &lt;/b&gt;slot floor parking lot to get its respective capacity" style="text;html=1;align=center;verticalAlign=middle;resizable=0;points=[];autosize=1;strokeColor=#d79b00;fillColor=#ffe6cc;" vertex="1" parent="1">
          <mxGeometry x="300" y="3440" width="440" height="30" as="geometry" />
        </mxCell>
        <mxCell id="tVv8EJueiG8kkGohXM46-199" value="What if the floor/parkingLot capactiy is calculated very frequently ?&lt;br&gt;Its better to have the above removed table for faster computation" style="text;html=1;align=center;verticalAlign=middle;resizable=0;points=[];autosize=1;strokeColor=none;fillColor=none;" vertex="1" parent="1">
          <mxGeometry x="17" y="3502" width="380" height="40" as="geometry" />
        </mxCell>
        <mxCell id="tVv8EJueiG8kkGohXM46-200" value="Ticket&amp;nbsp;" style="text;html=1;align=center;verticalAlign=middle;resizable=0;points=[];autosize=1;strokeColor=none;fillColor=none;" vertex="1" parent="1">
          <mxGeometry x="30" y="3568" width="60" height="30" as="geometry" />
        </mxCell>
        <mxCell id="tVv8EJueiG8kkGohXM46-201" value="Parkign Slot" style="text;html=1;align=center;verticalAlign=middle;resizable=0;points=[];autosize=1;strokeColor=none;fillColor=none;" vertex="1" parent="1">
          <mxGeometry x="95" y="3568" width="90" height="30" as="geometry" />
        </mxCell>
        <mxCell id="tVv8EJueiG8kkGohXM46-202" value="M" style="text;html=1;align=center;verticalAlign=middle;resizable=0;points=[];autosize=1;strokeColor=none;fillColor=none;" vertex="1" parent="1">
          <mxGeometry x="40" y="3598" width="30" height="30" as="geometry" />
        </mxCell>
        <mxCell id="tVv8EJueiG8kkGohXM46-203" value="1" style="text;html=1;align=center;verticalAlign=middle;resizable=0;points=[];autosize=1;strokeColor=none;fillColor=none;" vertex="1" parent="1">
          <mxGeometry x="120" y="3598" width="30" height="30" as="geometry" />
        </mxCell>
        <mxCell id="tVv8EJueiG8kkGohXM46-204" value="&lt;b&gt;TODO complete schema&lt;/b&gt;" style="text;html=1;align=center;verticalAlign=middle;resizable=0;points=[];autosize=1;strokeColor=none;fillColor=none;" vertex="1" parent="1">
          <mxGeometry x="445" y="3560" width="160" height="30" as="geometry" />
        </mxCell>
        <mxCell id="tVv8EJueiG8kkGohXM46-205" value="All the above are association relationshop" style="text;html=1;align=center;verticalAlign=middle;resizable=0;points=[];autosize=1;strokeColor=none;fillColor=none;" vertex="1" parent="1">
          <mxGeometry x="34" y="3660" width="250" height="30" as="geometry" />
        </mxCell>
        <mxCell id="tVv8EJueiG8kkGohXM46-206" value="How to represent inheritance in schema ?" style="text;html=1;align=center;verticalAlign=middle;resizable=0;points=[];autosize=1;strokeColor=none;fillColor=none;fontStyle=4" vertex="1" parent="1">
          <mxGeometry x="26" y="3718" width="240" height="30" as="geometry" />
        </mxCell>
        <mxCell id="tVv8EJueiG8kkGohXM46-207" value="Eg: Pen -&amp;gt; Ball Pen&lt;br&gt;-&amp;gt; Gell Pen" style="text;html=1;align=center;verticalAlign=middle;resizable=0;points=[];autosize=1;strokeColor=none;fillColor=none;" vertex="1" parent="1">
          <mxGeometry x="340" y="3708" width="130" height="40" as="geometry" />
        </mxCell>
        <mxCell id="tVv8EJueiG8kkGohXM46-210" value="id | name&lt;span style=&quot;color: rgba(0, 0, 0, 0); font-family: monospace; font-size: 0px; text-wrap: nowrap;&quot;&gt;%3CmxGraphModel%3E%3Croot%3E%3CmxCell%20id%3D%220%22%2F%3E%3CmxCell%20id%3D%221%22%20parent%3D%220%22%2F%3E%3CmxCell%20id%3D%222%22%20value%3D%22vehicles%22%20style%3D%22text%3Bhtml%3D1%3Balign%3Dleft%3BverticalAlign%3Dmiddle%3Bresizable%3D0%3Bpoints%3D%5B%5D%3Bautosize%3D1%3BstrokeColor%3Dnone%3BfillColor%3Dnone%3B%22%20vertex%3D%221%22%20parent%3D%221%22%3E%3CmxGeometry%20x%3D%2224%22%20y%3D%222798%22%20width%3D%2270%22%20height%3D%2230%22%20as%3D%22geometry%22%2F%3E%3C%2FmxCell%3E%3CmxCell%20id%3D%223%22%20value%3D%22id%20%7C%20number%20%7C%20owner_name%22%20style%3D%22rounded%3D0%3BwhiteSpace%3Dwrap%3Bhtml%3D1%3Balign%3Dleft%3B%22%20vertex%3D%221%22%20parent%3D%221%22%3E%3CmxGeometry%20x%3D%2224%22%20y%3D%222828%22%20width%3D%22590%22%20height%3D%2230%22%20as%3D%22geometry%22%2F%3E%3C%2FmxCell%3E%3C%2Froot%3E%3C%2FmxGraphModel%3E&lt;/span&gt;&lt;span style=&quot;color: rgba(0, 0, 0, 0); font-family: monospace; font-size: 0px; text-wrap: nowrap;&quot;&gt;%3CmxGraphModel%3E%3Croot%3E%3CmxCell%20id%3D%220%22%2F%3E%3CmxCell%20id%3D%221%22%20parent%3D%220%22%2F%3E%3CmxCell%20id%3D%222%22%20value%3D%22vehicles%22%20style%3D%22text%3Bhtml%3D1%3Balign%3Dleft%3BverticalAlign%3Dmiddle%3Bresizable%3D0%3Bpoints%3D%5B%5D%3Bautosize%3D1%3BstrokeColor%3Dnone%3BfillColor%3Dnone%3B%22%20vertex%3D%221%22%20parent%3D%221%22%3E%3CmxGeometry%20x%3D%2224%22%20y%3D%222798%22%20width%3D%2270%22%20height%3D%2230%22%20as%3D%22geometry%22%2F%3E%3C%2FmxCell%3E%3CmxCell%20id%3D%223%22%20value%3D%22id%20%7C%20number%20%7C%20owner_name%22%20style%3D%22rounded%3D0%3BwhiteSpace%3Dwrap%3Bhtml%3D1%3Balign%3Dleft%3B%22%20vertex%3D%221%22%20parent%3D%221%22%3E%3CmxGeometry%20x%3D%2224%22%20y%3D%222828%22%20width%3D%22590%22%20height%3D%2230%22%20as%3D%22geometry%22%2F%3E%3C%2FmxCell%3E%3C%2Froot%3E%3C%2FmxGraphModel%3E &lt;span style=&quot;background-color: rgb(255, 204, 204);&quot;&gt;n&lt;/span&gt;&lt;/span&gt;| price | pen_type" style="rounded=0;whiteSpace=wrap;html=1;align=left;" vertex="1" parent="1">
          <mxGeometry x="133" y="3773" width="157" height="30" as="geometry" />
        </mxCell>
        <mxCell id="tVv8EJueiG8kkGohXM46-211" value="pen" style="text;html=1;align=left;verticalAlign=middle;resizable=0;points=[];autosize=1;strokeColor=none;fillColor=none;" vertex="1" parent="1">
          <mxGeometry x="135" y="3748" width="40" height="30" as="geometry" />
        </mxCell>
        <mxCell id="tVv8EJueiG8kkGohXM46-212" value="pen_Id | radius" style="rounded=0;whiteSpace=wrap;html=1;align=left;" vertex="1" parent="1">
          <mxGeometry x="313" y="3773" width="157" height="30" as="geometry" />
        </mxCell>
        <mxCell id="tVv8EJueiG8kkGohXM46-213" value="gell_pen" style="text;html=1;align=left;verticalAlign=middle;resizable=0;points=[];autosize=1;strokeColor=none;fillColor=none;" vertex="1" parent="1">
          <mxGeometry x="315" y="3748" width="70" height="30" as="geometry" />
        </mxCell>
        <mxCell id="tVv8EJueiG8kkGohXM46-214" value="pen_id | ink_type" style="rounded=0;whiteSpace=wrap;html=1;align=left;" vertex="1" parent="1">
          <mxGeometry x="513" y="3773" width="157" height="30" as="geometry" />
        </mxCell>
        <mxCell id="tVv8EJueiG8kkGohXM46-215" value="pen" style="text;html=1;align=left;verticalAlign=middle;resizable=0;points=[];autosize=1;strokeColor=none;fillColor=none;" vertex="1" parent="1">
          <mxGeometry x="515" y="3748" width="40" height="30" as="geometry" />
        </mxCell>
        <mxCell id="tVv8EJueiG8kkGohXM46-216" value="Project structure" style="text;html=1;align=center;verticalAlign=middle;resizable=0;points=[];autosize=1;strokeColor=none;fillColor=none;fontStyle=1" vertex="1" parent="1">
          <mxGeometry x="19" y="3890" width="110" height="30" as="geometry" />
        </mxCell>
        <mxCell id="tVv8EJueiG8kkGohXM46-217" value="models" style="text;html=1;align=center;verticalAlign=middle;resizable=0;points=[];autosize=1;strokeColor=none;fillColor=none;" vertex="1" parent="1">
          <mxGeometry x="27" y="3920" width="60" height="30" as="geometry" />
        </mxCell>
        <mxCell id="tVv8EJueiG8kkGohXM46-218" value="controllers" style="text;html=1;align=center;verticalAlign=middle;resizable=0;points=[];autosize=1;strokeColor=none;fillColor=none;" vertex="1" parent="1">
          <mxGeometry x="24" y="3940" width="80" height="30" as="geometry" />
        </mxCell>
        <mxCell id="tVv8EJueiG8kkGohXM46-219" value="services" style="text;html=1;align=center;verticalAlign=middle;resizable=0;points=[];autosize=1;strokeColor=none;fillColor=none;" vertex="1" parent="1">
          <mxGeometry x="24" y="3960" width="70" height="30" as="geometry" />
        </mxCell>
        <mxCell id="tVv8EJueiG8kkGohXM46-220" value="repositories" style="text;html=1;align=center;verticalAlign=middle;resizable=0;points=[];autosize=1;strokeColor=none;fillColor=none;" vertex="1" parent="1">
          <mxGeometry x="24" y="3978" width="90" height="30" as="geometry" />
        </mxCell>
        <mxCell id="tVv8EJueiG8kkGohXM46-225" value="" style="edgeStyle=orthogonalEdgeStyle;rounded=0;orthogonalLoop=1;jettySize=auto;html=1;" edge="1" parent="1" source="tVv8EJueiG8kkGohXM46-221" target="tVv8EJueiG8kkGohXM46-224">
          <mxGeometry relative="1" as="geometry" />
        </mxCell>
        <mxCell id="tVv8EJueiG8kkGohXM46-221" value="dtos" style="text;html=1;align=center;verticalAlign=middle;resizable=0;points=[];autosize=1;strokeColor=none;fillColor=none;" vertex="1" parent="1">
          <mxGeometry x="25" y="4000" width="50" height="30" as="geometry" />
        </mxCell>
        <mxCell id="tVv8EJueiG8kkGohXM46-224" value="For responses in API" style="text;html=1;align=center;verticalAlign=middle;resizable=0;points=[];autosize=1;strokeColor=none;fillColor=none;" vertex="1" parent="1">
          <mxGeometry x="115" y="4000" width="130" height="30" as="geometry" />
        </mxCell>
      </root>
    </mxGraphModel>
  </diagram>
</mxfile>
